<?xml version="1.0" encoding="utf-8" standalone="no"?>
<!DOCTYPE svg PUBLIC "-//W3C//DTD SVG 1.1//EN"
  "http://www.w3.org/Graphics/SVG/1.1/DTD/svg11.dtd">
<svg xmlns:xlink="http://www.w3.org/1999/xlink" width="212.598425pt" height="141.732283pt" viewBox="0 0 212.598425 141.732283" xmlns="http://www.w3.org/2000/svg" version="1.1">
 <metadata>
  <rdf:RDF xmlns:dc="http://purl.org/dc/elements/1.1/" xmlns:cc="http://creativecommons.org/ns#" xmlns:rdf="http://www.w3.org/1999/02/22-rdf-syntax-ns#">
   <cc:Work>
    <dc:type rdf:resource="http://purl.org/dc/dcmitype/StillImage"/>
    <dc:date>2024-12-20T15:38:58.867533</dc:date>
    <dc:format>image/svg+xml</dc:format>
    <dc:creator>
     <cc:Agent>
      <dc:title>Matplotlib v3.9.2, https://matplotlib.org/</dc:title>
     </cc:Agent>
    </dc:creator>
   </cc:Work>
  </rdf:RDF>
 </metadata>
 <defs>
  <style type="text/css">*{stroke-linejoin: round; stroke-linecap: butt}</style>
 </defs>
 <g id="figure_1">
  <g id="patch_1">
   <path d="M 0 141.732283 
L 212.598425 141.732283 
L 212.598425 0 
L 0 0 
z
" style="fill: #ffffff"/>
  </g>
  <g id="axes_1">
   <g id="patch_2">
    <path d="M 23.855 116.492283 
L 198.355925 116.492283 
L 198.355925 7.56 
L 23.855 7.56 
z
" style="fill: #ffffff"/>
   </g>
   <g id="matplotlib.axis_1">
    <g id="xtick_1">
     <g id="line2d_1">
      <defs>
       <path id="m01df8a48c3" d="M 0 0 
L 0 -3.5 
" style="stroke: #000000; stroke-width: 0.8"/>
      </defs>
      <g>
       <use xlink:href="#m01df8a48c3" x="26.715671" y="116.492283" style="stroke: #000000; stroke-width: 0.8"/>
      </g>
     </g>
     <g id="line2d_2">
      <defs>
       <path id="mce064a1e69" d="M 0 0 
L 0 3.5 
" style="stroke: #000000; stroke-width: 0.8"/>
      </defs>
      <g>
       <use xlink:href="#mce064a1e69" x="26.715671" y="7.56" style="stroke: #000000; stroke-width: 0.8"/>
      </g>
     </g>
     <g id="text_1">
      <!-- 120 -->
      <g transform="translate(20.035046 124.31119) scale(0.07 -0.07)">
       <defs>
        <path id="DejaVuSans-31" d="M 794 531 
L 1825 531 
L 1825 4091 
L 703 3866 
L 703 4441 
L 1819 4666 
L 2450 4666 
L 2450 531 
L 3481 531 
L 3481 0 
L 794 0 
L 794 531 
z
" transform="scale(0.015625)"/>
        <path id="DejaVuSans-32" d="M 1228 531 
L 3431 531 
L 3431 0 
L 469 0 
L 469 531 
Q 828 903 1448 1529 
Q 2069 2156 2228 2338 
Q 2531 2678 2651 2914 
Q 2772 3150 2772 3378 
Q 2772 3750 2511 3984 
Q 2250 4219 1831 4219 
Q 1534 4219 1204 4116 
Q 875 4013 500 3803 
L 500 4441 
Q 881 4594 1212 4672 
Q 1544 4750 1819 4750 
Q 2544 4750 2975 4387 
Q 3406 4025 3406 3419 
Q 3406 3131 3298 2873 
Q 3191 2616 2906 2266 
Q 2828 2175 2409 1742 
Q 1991 1309 1228 531 
z
" transform="scale(0.015625)"/>
        <path id="DejaVuSans-30" d="M 2034 4250 
Q 1547 4250 1301 3770 
Q 1056 3291 1056 2328 
Q 1056 1369 1301 889 
Q 1547 409 2034 409 
Q 2525 409 2770 889 
Q 3016 1369 3016 2328 
Q 3016 3291 2770 3770 
Q 2525 4250 2034 4250 
z
M 2034 4750 
Q 2819 4750 3233 4129 
Q 3647 3509 3647 2328 
Q 3647 1150 3233 529 
Q 2819 -91 2034 -91 
Q 1250 -91 836 529 
Q 422 1150 422 2328 
Q 422 3509 836 4129 
Q 1250 4750 2034 4750 
z
" transform="scale(0.015625)"/>
       </defs>
       <use xlink:href="#DejaVuSans-31"/>
       <use xlink:href="#DejaVuSans-32" x="63.623047"/>
       <use xlink:href="#DejaVuSans-30" x="127.246094"/>
      </g>
     </g>
    </g>
    <g id="xtick_2">
     <g id="line2d_3">
      <g>
       <use xlink:href="#m01df8a48c3" x="83.929089" y="116.492283" style="stroke: #000000; stroke-width: 0.8"/>
      </g>
     </g>
     <g id="line2d_4">
      <g>
       <use xlink:href="#mce064a1e69" x="83.929089" y="7.56" style="stroke: #000000; stroke-width: 0.8"/>
      </g>
     </g>
     <g id="text_2">
      <!-- 130 -->
      <g transform="translate(77.248464 124.31119) scale(0.07 -0.07)">
       <defs>
        <path id="DejaVuSans-33" d="M 2597 2516 
Q 3050 2419 3304 2112 
Q 3559 1806 3559 1356 
Q 3559 666 3084 287 
Q 2609 -91 1734 -91 
Q 1441 -91 1130 -33 
Q 819 25 488 141 
L 488 750 
Q 750 597 1062 519 
Q 1375 441 1716 441 
Q 2309 441 2620 675 
Q 2931 909 2931 1356 
Q 2931 1769 2642 2001 
Q 2353 2234 1838 2234 
L 1294 2234 
L 1294 2753 
L 1863 2753 
Q 2328 2753 2575 2939 
Q 2822 3125 2822 3475 
Q 2822 3834 2567 4026 
Q 2313 4219 1838 4219 
Q 1578 4219 1281 4162 
Q 984 4106 628 3988 
L 628 4550 
Q 988 4650 1302 4700 
Q 1616 4750 1894 4750 
Q 2613 4750 3031 4423 
Q 3450 4097 3450 3541 
Q 3450 3153 3228 2886 
Q 3006 2619 2597 2516 
z
" transform="scale(0.015625)"/>
       </defs>
       <use xlink:href="#DejaVuSans-31"/>
       <use xlink:href="#DejaVuSans-33" x="63.623047"/>
       <use xlink:href="#DejaVuSans-30" x="127.246094"/>
      </g>
     </g>
    </g>
    <g id="xtick_3">
     <g id="line2d_5">
      <g>
       <use xlink:href="#m01df8a48c3" x="141.142507" y="116.492283" style="stroke: #000000; stroke-width: 0.8"/>
      </g>
     </g>
     <g id="line2d_6">
      <g>
       <use xlink:href="#mce064a1e69" x="141.142507" y="7.56" style="stroke: #000000; stroke-width: 0.8"/>
      </g>
     </g>
     <g id="text_3">
      <!-- 140 -->
      <g transform="translate(134.461882 124.31119) scale(0.07 -0.07)">
       <defs>
        <path id="DejaVuSans-34" d="M 2419 4116 
L 825 1625 
L 2419 1625 
L 2419 4116 
z
M 2253 4666 
L 3047 4666 
L 3047 1625 
L 3713 1625 
L 3713 1100 
L 3047 1100 
L 3047 0 
L 2419 0 
L 2419 1100 
L 313 1100 
L 313 1709 
L 2253 4666 
z
" transform="scale(0.015625)"/>
       </defs>
       <use xlink:href="#DejaVuSans-31"/>
       <use xlink:href="#DejaVuSans-34" x="63.623047"/>
       <use xlink:href="#DejaVuSans-30" x="127.246094"/>
      </g>
     </g>
    </g>
    <g id="xtick_4">
     <g id="line2d_7">
      <g>
       <use xlink:href="#m01df8a48c3" x="198.355925" y="116.492283" style="stroke: #000000; stroke-width: 0.8"/>
      </g>
     </g>
     <g id="line2d_8">
      <g>
       <use xlink:href="#mce064a1e69" x="198.355925" y="7.56" style="stroke: #000000; stroke-width: 0.8"/>
      </g>
     </g>
     <g id="text_4">
      <!-- 150 -->
      <g transform="translate(191.6753 124.31119) scale(0.07 -0.07)">
       <defs>
        <path id="DejaVuSans-35" d="M 691 4666 
L 3169 4666 
L 3169 4134 
L 1269 4134 
L 1269 2991 
Q 1406 3038 1543 3061 
Q 1681 3084 1819 3084 
Q 2600 3084 3056 2656 
Q 3513 2228 3513 1497 
Q 3513 744 3044 326 
Q 2575 -91 1722 -91 
Q 1428 -91 1123 -41 
Q 819 9 494 109 
L 494 744 
Q 775 591 1075 516 
Q 1375 441 1709 441 
Q 2250 441 2565 725 
Q 2881 1009 2881 1497 
Q 2881 1984 2565 2268 
Q 2250 2553 1709 2553 
Q 1456 2553 1204 2497 
Q 953 2441 691 2322 
L 691 4666 
z
" transform="scale(0.015625)"/>
       </defs>
       <use xlink:href="#DejaVuSans-31"/>
       <use xlink:href="#DejaVuSans-35" x="63.623047"/>
       <use xlink:href="#DejaVuSans-30" x="127.246094"/>
      </g>
     </g>
    </g>
    <g id="text_5">
     <!-- Frequency [GHz + 484 THz] -->
     <g transform="translate(62.442884 132.585877) scale(0.07 -0.07)">
      <defs>
       <path id="DejaVuSans-46" d="M 628 4666 
L 3309 4666 
L 3309 4134 
L 1259 4134 
L 1259 2759 
L 3109 2759 
L 3109 2228 
L 1259 2228 
L 1259 0 
L 628 0 
L 628 4666 
z
" transform="scale(0.015625)"/>
       <path id="DejaVuSans-72" d="M 2631 2963 
Q 2534 3019 2420 3045 
Q 2306 3072 2169 3072 
Q 1681 3072 1420 2755 
Q 1159 2438 1159 1844 
L 1159 0 
L 581 0 
L 581 3500 
L 1159 3500 
L 1159 2956 
Q 1341 3275 1631 3429 
Q 1922 3584 2338 3584 
Q 2397 3584 2469 3576 
Q 2541 3569 2628 3553 
L 2631 2963 
z
" transform="scale(0.015625)"/>
       <path id="DejaVuSans-65" d="M 3597 1894 
L 3597 1613 
L 953 1613 
Q 991 1019 1311 708 
Q 1631 397 2203 397 
Q 2534 397 2845 478 
Q 3156 559 3463 722 
L 3463 178 
Q 3153 47 2828 -22 
Q 2503 -91 2169 -91 
Q 1331 -91 842 396 
Q 353 884 353 1716 
Q 353 2575 817 3079 
Q 1281 3584 2069 3584 
Q 2775 3584 3186 3129 
Q 3597 2675 3597 1894 
z
M 3022 2063 
Q 3016 2534 2758 2815 
Q 2500 3097 2075 3097 
Q 1594 3097 1305 2825 
Q 1016 2553 972 2059 
L 3022 2063 
z
" transform="scale(0.015625)"/>
       <path id="DejaVuSans-71" d="M 947 1747 
Q 947 1113 1208 752 
Q 1469 391 1925 391 
Q 2381 391 2643 752 
Q 2906 1113 2906 1747 
Q 2906 2381 2643 2742 
Q 2381 3103 1925 3103 
Q 1469 3103 1208 2742 
Q 947 2381 947 1747 
z
M 2906 525 
Q 2725 213 2448 61 
Q 2172 -91 1784 -91 
Q 1150 -91 751 415 
Q 353 922 353 1747 
Q 353 2572 751 3078 
Q 1150 3584 1784 3584 
Q 2172 3584 2448 3432 
Q 2725 3281 2906 2969 
L 2906 3500 
L 3481 3500 
L 3481 -1331 
L 2906 -1331 
L 2906 525 
z
" transform="scale(0.015625)"/>
       <path id="DejaVuSans-75" d="M 544 1381 
L 544 3500 
L 1119 3500 
L 1119 1403 
Q 1119 906 1312 657 
Q 1506 409 1894 409 
Q 2359 409 2629 706 
Q 2900 1003 2900 1516 
L 2900 3500 
L 3475 3500 
L 3475 0 
L 2900 0 
L 2900 538 
Q 2691 219 2414 64 
Q 2138 -91 1772 -91 
Q 1169 -91 856 284 
Q 544 659 544 1381 
z
M 1991 3584 
L 1991 3584 
z
" transform="scale(0.015625)"/>
       <path id="DejaVuSans-6e" d="M 3513 2113 
L 3513 0 
L 2938 0 
L 2938 2094 
Q 2938 2591 2744 2837 
Q 2550 3084 2163 3084 
Q 1697 3084 1428 2787 
Q 1159 2491 1159 1978 
L 1159 0 
L 581 0 
L 581 3500 
L 1159 3500 
L 1159 2956 
Q 1366 3272 1645 3428 
Q 1925 3584 2291 3584 
Q 2894 3584 3203 3211 
Q 3513 2838 3513 2113 
z
" transform="scale(0.015625)"/>
       <path id="DejaVuSans-63" d="M 3122 3366 
L 3122 2828 
Q 2878 2963 2633 3030 
Q 2388 3097 2138 3097 
Q 1578 3097 1268 2742 
Q 959 2388 959 1747 
Q 959 1106 1268 751 
Q 1578 397 2138 397 
Q 2388 397 2633 464 
Q 2878 531 3122 666 
L 3122 134 
Q 2881 22 2623 -34 
Q 2366 -91 2075 -91 
Q 1284 -91 818 406 
Q 353 903 353 1747 
Q 353 2603 823 3093 
Q 1294 3584 2113 3584 
Q 2378 3584 2631 3529 
Q 2884 3475 3122 3366 
z
" transform="scale(0.015625)"/>
       <path id="DejaVuSans-79" d="M 2059 -325 
Q 1816 -950 1584 -1140 
Q 1353 -1331 966 -1331 
L 506 -1331 
L 506 -850 
L 844 -850 
Q 1081 -850 1212 -737 
Q 1344 -625 1503 -206 
L 1606 56 
L 191 3500 
L 800 3500 
L 1894 763 
L 2988 3500 
L 3597 3500 
L 2059 -325 
z
" transform="scale(0.015625)"/>
       <path id="DejaVuSans-20" transform="scale(0.015625)"/>
       <path id="DejaVuSans-5b" d="M 550 4863 
L 1875 4863 
L 1875 4416 
L 1125 4416 
L 1125 -397 
L 1875 -397 
L 1875 -844 
L 550 -844 
L 550 4863 
z
" transform="scale(0.015625)"/>
       <path id="DejaVuSans-47" d="M 3809 666 
L 3809 1919 
L 2778 1919 
L 2778 2438 
L 4434 2438 
L 4434 434 
Q 4069 175 3628 42 
Q 3188 -91 2688 -91 
Q 1594 -91 976 548 
Q 359 1188 359 2328 
Q 359 3472 976 4111 
Q 1594 4750 2688 4750 
Q 3144 4750 3555 4637 
Q 3966 4525 4313 4306 
L 4313 3634 
Q 3963 3931 3569 4081 
Q 3175 4231 2741 4231 
Q 1884 4231 1454 3753 
Q 1025 3275 1025 2328 
Q 1025 1384 1454 906 
Q 1884 428 2741 428 
Q 3075 428 3337 486 
Q 3600 544 3809 666 
z
" transform="scale(0.015625)"/>
       <path id="DejaVuSans-48" d="M 628 4666 
L 1259 4666 
L 1259 2753 
L 3553 2753 
L 3553 4666 
L 4184 4666 
L 4184 0 
L 3553 0 
L 3553 2222 
L 1259 2222 
L 1259 0 
L 628 0 
L 628 4666 
z
" transform="scale(0.015625)"/>
       <path id="DejaVuSans-7a" d="M 353 3500 
L 3084 3500 
L 3084 2975 
L 922 459 
L 3084 459 
L 3084 0 
L 275 0 
L 275 525 
L 2438 3041 
L 353 3041 
L 353 3500 
z
" transform="scale(0.015625)"/>
       <path id="DejaVuSans-2b" d="M 2944 4013 
L 2944 2272 
L 4684 2272 
L 4684 1741 
L 2944 1741 
L 2944 0 
L 2419 0 
L 2419 1741 
L 678 1741 
L 678 2272 
L 2419 2272 
L 2419 4013 
L 2944 4013 
z
" transform="scale(0.015625)"/>
       <path id="DejaVuSans-38" d="M 2034 2216 
Q 1584 2216 1326 1975 
Q 1069 1734 1069 1313 
Q 1069 891 1326 650 
Q 1584 409 2034 409 
Q 2484 409 2743 651 
Q 3003 894 3003 1313 
Q 3003 1734 2745 1975 
Q 2488 2216 2034 2216 
z
M 1403 2484 
Q 997 2584 770 2862 
Q 544 3141 544 3541 
Q 544 4100 942 4425 
Q 1341 4750 2034 4750 
Q 2731 4750 3128 4425 
Q 3525 4100 3525 3541 
Q 3525 3141 3298 2862 
Q 3072 2584 2669 2484 
Q 3125 2378 3379 2068 
Q 3634 1759 3634 1313 
Q 3634 634 3220 271 
Q 2806 -91 2034 -91 
Q 1263 -91 848 271 
Q 434 634 434 1313 
Q 434 1759 690 2068 
Q 947 2378 1403 2484 
z
M 1172 3481 
Q 1172 3119 1398 2916 
Q 1625 2713 2034 2713 
Q 2441 2713 2670 2916 
Q 2900 3119 2900 3481 
Q 2900 3844 2670 4047 
Q 2441 4250 2034 4250 
Q 1625 4250 1398 4047 
Q 1172 3844 1172 3481 
z
" transform="scale(0.015625)"/>
       <path id="DejaVuSans-54" d="M -19 4666 
L 3928 4666 
L 3928 4134 
L 2272 4134 
L 2272 0 
L 1638 0 
L 1638 4134 
L -19 4134 
L -19 4666 
z
" transform="scale(0.015625)"/>
       <path id="DejaVuSans-5d" d="M 1947 4863 
L 1947 -844 
L 622 -844 
L 622 -397 
L 1369 -397 
L 1369 4416 
L 622 4416 
L 622 4863 
L 1947 4863 
z
" transform="scale(0.015625)"/>
      </defs>
      <use xlink:href="#DejaVuSans-46"/>
      <use xlink:href="#DejaVuSans-72" x="50.269531"/>
      <use xlink:href="#DejaVuSans-65" x="89.132812"/>
      <use xlink:href="#DejaVuSans-71" x="150.65625"/>
      <use xlink:href="#DejaVuSans-75" x="214.132812"/>
      <use xlink:href="#DejaVuSans-65" x="277.511719"/>
      <use xlink:href="#DejaVuSans-6e" x="339.035156"/>
      <use xlink:href="#DejaVuSans-63" x="402.414062"/>
      <use xlink:href="#DejaVuSans-79" x="457.394531"/>
      <use xlink:href="#DejaVuSans-20" x="516.574219"/>
      <use xlink:href="#DejaVuSans-5b" x="548.361328"/>
      <use xlink:href="#DejaVuSans-47" x="587.375"/>
      <use xlink:href="#DejaVuSans-48" x="664.865234"/>
      <use xlink:href="#DejaVuSans-7a" x="740.060547"/>
      <use xlink:href="#DejaVuSans-20" x="792.550781"/>
      <use xlink:href="#DejaVuSans-2b" x="824.337891"/>
      <use xlink:href="#DejaVuSans-20" x="908.126953"/>
      <use xlink:href="#DejaVuSans-34" x="939.914062"/>
      <use xlink:href="#DejaVuSans-38" x="1003.537109"/>
      <use xlink:href="#DejaVuSans-34" x="1067.160156"/>
      <use xlink:href="#DejaVuSans-20" x="1130.783203"/>
      <use xlink:href="#DejaVuSans-54" x="1162.570312"/>
      <use xlink:href="#DejaVuSans-48" x="1223.654297"/>
      <use xlink:href="#DejaVuSans-7a" x="1298.849609"/>
      <use xlink:href="#DejaVuSans-5d" x="1351.339844"/>
     </g>
    </g>
   </g>
   <g id="matplotlib.axis_2">
    <g id="ytick_1">
     <g id="line2d_9">
      <defs>
       <path id="mb34c629543" d="M 0 0 
L 2.5 0 
" style="stroke: #000000; stroke-width: 0.8"/>
      </defs>
      <g>
       <use xlink:href="#mb34c629543" x="23.855" y="116.492283" style="stroke: #000000; stroke-width: 0.8"/>
      </g>
     </g>
     <g id="line2d_10">
      <defs>
       <path id="m1b0c7e79b3" d="M 0 0 
L -2.5 0 
" style="stroke: #000000; stroke-width: 0.8"/>
      </defs>
      <g>
       <use xlink:href="#m1b0c7e79b3" x="198.355925" y="116.492283" style="stroke: #000000; stroke-width: 0.8"/>
      </g>
     </g>
     <g id="text_6">
      <!-- 0 -->
      <g transform="translate(15.90125 119.151737) scale(0.07 -0.07)">
       <use xlink:href="#DejaVuSans-30"/>
      </g>
     </g>
    </g>
    <g id="ytick_2">
     <g id="line2d_11">
      <g>
       <use xlink:href="#mb34c629543" x="23.855" y="17.462935" style="stroke: #000000; stroke-width: 0.8"/>
      </g>
     </g>
     <g id="line2d_12">
      <g>
       <use xlink:href="#m1b0c7e79b3" x="198.355925" y="17.462935" style="stroke: #000000; stroke-width: 0.8"/>
      </g>
     </g>
     <g id="text_7">
      <!-- 1 -->
      <g transform="translate(15.90125 20.122388) scale(0.07 -0.07)">
       <use xlink:href="#DejaVuSans-31"/>
      </g>
     </g>
    </g>
    <g id="text_8">
     <!-- Count rate [a.u.] -->
     <g transform="translate(12.945469 91.07286) rotate(-90) scale(0.07 -0.07)">
      <defs>
       <path id="DejaVuSans-43" d="M 4122 4306 
L 4122 3641 
Q 3803 3938 3442 4084 
Q 3081 4231 2675 4231 
Q 1875 4231 1450 3742 
Q 1025 3253 1025 2328 
Q 1025 1406 1450 917 
Q 1875 428 2675 428 
Q 3081 428 3442 575 
Q 3803 722 4122 1019 
L 4122 359 
Q 3791 134 3420 21 
Q 3050 -91 2638 -91 
Q 1578 -91 968 557 
Q 359 1206 359 2328 
Q 359 3453 968 4101 
Q 1578 4750 2638 4750 
Q 3056 4750 3426 4639 
Q 3797 4528 4122 4306 
z
" transform="scale(0.015625)"/>
       <path id="DejaVuSans-6f" d="M 1959 3097 
Q 1497 3097 1228 2736 
Q 959 2375 959 1747 
Q 959 1119 1226 758 
Q 1494 397 1959 397 
Q 2419 397 2687 759 
Q 2956 1122 2956 1747 
Q 2956 2369 2687 2733 
Q 2419 3097 1959 3097 
z
M 1959 3584 
Q 2709 3584 3137 3096 
Q 3566 2609 3566 1747 
Q 3566 888 3137 398 
Q 2709 -91 1959 -91 
Q 1206 -91 779 398 
Q 353 888 353 1747 
Q 353 2609 779 3096 
Q 1206 3584 1959 3584 
z
" transform="scale(0.015625)"/>
       <path id="DejaVuSans-74" d="M 1172 4494 
L 1172 3500 
L 2356 3500 
L 2356 3053 
L 1172 3053 
L 1172 1153 
Q 1172 725 1289 603 
Q 1406 481 1766 481 
L 2356 481 
L 2356 0 
L 1766 0 
Q 1100 0 847 248 
Q 594 497 594 1153 
L 594 3053 
L 172 3053 
L 172 3500 
L 594 3500 
L 594 4494 
L 1172 4494 
z
" transform="scale(0.015625)"/>
       <path id="DejaVuSans-61" d="M 2194 1759 
Q 1497 1759 1228 1600 
Q 959 1441 959 1056 
Q 959 750 1161 570 
Q 1363 391 1709 391 
Q 2188 391 2477 730 
Q 2766 1069 2766 1631 
L 2766 1759 
L 2194 1759 
z
M 3341 1997 
L 3341 0 
L 2766 0 
L 2766 531 
Q 2569 213 2275 61 
Q 1981 -91 1556 -91 
Q 1019 -91 701 211 
Q 384 513 384 1019 
Q 384 1609 779 1909 
Q 1175 2209 1959 2209 
L 2766 2209 
L 2766 2266 
Q 2766 2663 2505 2880 
Q 2244 3097 1772 3097 
Q 1472 3097 1187 3025 
Q 903 2953 641 2809 
L 641 3341 
Q 956 3463 1253 3523 
Q 1550 3584 1831 3584 
Q 2591 3584 2966 3190 
Q 3341 2797 3341 1997 
z
" transform="scale(0.015625)"/>
       <path id="DejaVuSans-2e" d="M 684 794 
L 1344 794 
L 1344 0 
L 684 0 
L 684 794 
z
" transform="scale(0.015625)"/>
      </defs>
      <use xlink:href="#DejaVuSans-43"/>
      <use xlink:href="#DejaVuSans-6f" x="69.824219"/>
      <use xlink:href="#DejaVuSans-75" x="131.005859"/>
      <use xlink:href="#DejaVuSans-6e" x="194.384766"/>
      <use xlink:href="#DejaVuSans-74" x="257.763672"/>
      <use xlink:href="#DejaVuSans-20" x="296.972656"/>
      <use xlink:href="#DejaVuSans-72" x="328.759766"/>
      <use xlink:href="#DejaVuSans-61" x="369.873047"/>
      <use xlink:href="#DejaVuSans-74" x="431.152344"/>
      <use xlink:href="#DejaVuSans-65" x="470.361328"/>
      <use xlink:href="#DejaVuSans-20" x="531.884766"/>
      <use xlink:href="#DejaVuSans-5b" x="563.671875"/>
      <use xlink:href="#DejaVuSans-61" x="602.685547"/>
      <use xlink:href="#DejaVuSans-2e" x="663.964844"/>
      <use xlink:href="#DejaVuSans-75" x="695.751953"/>
      <use xlink:href="#DejaVuSans-2e" x="759.130859"/>
      <use xlink:href="#DejaVuSans-5d" x="790.917969"/>
     </g>
    </g>
   </g>
   <g id="line2d_13">
    <path d="M 26.715671 114.754154 
L 26.858704 114.842161 
L 27.001738 115.348199 
L 27.287805 114.908166 
L 27.430839 115.348199 
L 27.573872 114.842161 
L 27.716906 115.414203 
L 28.002973 114.776156 
L 28.146006 115.040176 
L 28.28904 114.974171 
L 28.575107 115.150184 
L 28.718141 114.776156 
L 28.861174 114.996172 
L 29.004208 114.380127 
L 29.147241 115.084179 
L 29.290275 115.194187 
L 29.433308 114.710151 
L 29.719375 115.018174 
L 29.862409 114.952169 
L 30.005442 115.150184 
L 30.148476 115.062177 
L 30.29151 115.106181 
L 30.434543 114.68815 
L 30.72061 115.084179 
L 30.863644 115.326197 
L 31.006677 114.908166 
L 31.292744 114.798158 
L 31.435778 114.908166 
L 31.578811 115.3702 
L 31.864879 114.754154 
L 32.007912 115.040176 
L 32.150946 113.060029 
L 32.293979 114.666148 
L 32.437013 114.776156 
L 32.580046 114.490135 
L 32.72308 114.996172 
L 33.15218 115.172186 
L 33.295214 115.216189 
L 33.438248 115.128182 
L 33.581281 114.55614 
L 33.867348 114.29212 
L 34.010382 114.996172 
L 34.153415 114.930168 
L 34.439482 114.094106 
L 34.582516 115.040176 
L 34.725549 111.277897 
L 34.868583 115.106181 
L 35.011617 111.123885 
L 35.15465 112.311973 
L 35.297684 114.776156 
L 35.440717 113.874089 
L 35.583751 113.786083 
L 35.726784 115.128182 
L 35.869818 114.952169 
L 36.155885 115.23819 
L 36.441952 114.930168 
L 36.584986 114.886164 
L 36.871053 115.062177 
L 37.014086 115.326197 
L 37.15712 115.260192 
L 37.300153 114.908166 
L 37.58622 115.062177 
L 37.729254 114.908166 
L 37.872287 114.446132 
L 38.158355 114.55614 
L 38.301388 114.886164 
L 38.444422 114.710151 
L 38.587455 114.886164 
L 38.730489 115.304195 
L 38.873522 115.106181 
L 39.016556 115.106181 
L 39.159589 114.952169 
L 39.302623 115.392202 
L 39.58869 112.575993 
L 39.731724 114.248117 
L 39.874757 113.632071 
L 40.017791 113.764081 
L 40.160824 114.490135 
L 40.446891 111.937946 
L 40.589925 108.373681 
L 40.732958 101.377162 
L 40.875992 115.326197 
L 41.019025 114.710151 
L 41.162059 114.754154 
L 41.305093 114.996172 
L 41.448126 114.710151 
L 41.59116 115.084179 
L 41.877227 114.820159 
L 42.02026 115.062177 
L 42.735428 114.820159 
L 42.878462 114.952169 
L 43.021495 114.798158 
L 43.307562 115.150184 
L 43.593629 114.578141 
L 43.736663 115.062177 
L 44.02273 114.820159 
L 44.165763 115.128182 
L 44.308797 114.534138 
L 44.451831 114.952169 
L 44.594864 114.446132 
L 44.880931 115.018174 
L 45.023965 114.886164 
L 45.166998 115.128182 
L 45.453065 114.798158 
L 45.596099 115.128182 
L 45.882166 115.106181 
L 46.0252 114.468133 
L 46.168233 114.820159 
L 46.311267 112.862014 
L 46.4543 114.55614 
L 46.740367 115.216189 
L 47.026434 114.886164 
L 47.169468 115.106181 
L 47.312501 99.507023 
L 47.598569 35.306259 
L 47.741602 40.344633 
L 48.027669 114.930168 
L 48.170703 115.128182 
L 48.313736 115.106181 
L 48.45677 115.326197 
L 48.742837 114.732153 
L 48.88587 114.55614 
L 49.028904 114.644146 
L 49.171938 115.084179 
L 49.314971 115.040176 
L 49.458005 114.842161 
L 49.601038 115.062177 
L 50.316206 115.128182 
L 50.602273 114.666148 
L 50.745307 115.062177 
L 50.88834 114.886164 
L 51.031374 114.930168 
L 51.174407 114.732153 
L 51.317441 115.040176 
L 51.460474 114.578141 
L 51.603508 114.732153 
L 51.746541 115.062177 
L 51.889575 115.040176 
L 52.032608 115.150184 
L 52.175642 115.106181 
L 52.318676 114.930168 
L 52.461709 115.194187 
L 52.604743 114.886164 
L 52.89081 114.864163 
L 53.033843 115.128182 
L 53.462944 115.106181 
L 53.605977 114.820159 
L 53.749011 115.216189 
L 53.892045 103.401312 
L 54.035078 17.462935 
L 54.178112 42.830817 
L 54.464179 106.899572 
L 54.607212 105.381459 
L 54.750246 111.145887 
L 55.32238 114.182112 
L 55.465413 114.754154 
L 55.608447 114.29212 
L 55.894514 114.644146 
L 56.037548 114.68815 
L 56.180581 114.886164 
L 56.323615 114.490135 
L 56.466648 114.864163 
L 56.609682 114.68815 
L 56.752715 114.710151 
L 56.895749 114.886164 
L 57.038782 114.600143 
L 57.181816 115.084179 
L 57.32485 115.062177 
L 57.467883 115.172186 
L 57.75395 115.040176 
L 57.896984 115.50221 
L 58.040017 114.820159 
L 58.183051 114.776156 
L 58.326084 115.304195 
L 58.612151 114.754154 
L 58.898219 115.194187 
L 59.041252 114.776156 
L 59.327319 114.68815 
L 59.470353 115.348199 
L 59.613386 115.106181 
L 59.75642 115.172186 
L 59.899453 114.776156 
L 60.042487 115.062177 
L 60.18552 114.996172 
L 60.328554 115.062177 
L 60.614621 114.864163 
L 60.757655 115.436205 
L 61.043722 114.754154 
L 61.472822 115.304195 
L 61.615856 115.040176 
L 61.758889 115.128182 
L 61.901923 115.062177 
L 62.044957 114.798158 
L 62.331024 115.106181 
L 62.474057 114.996172 
L 62.617091 115.062177 
L 62.760124 115.260192 
L 63.046191 114.974171 
L 63.189225 115.216189 
L 63.475292 114.952169 
L 63.618326 115.304195 
L 63.761359 115.106181 
L 63.904393 115.172186 
L 64.047426 115.106181 
L 64.19046 115.3702 
L 64.333493 114.974171 
L 64.476527 114.952169 
L 64.61956 115.3702 
L 64.762594 115.040176 
L 64.905627 115.414203 
L 65.191695 115.018174 
L 65.334728 115.194187 
L 65.477762 114.864163 
L 65.620795 115.282194 
L 65.906862 115.23819 
L 66.62203 114.732153 
L 66.908097 115.216189 
L 67.051131 114.886164 
L 67.194164 115.194187 
L 68.052365 115.084179 
L 68.195399 115.172186 
L 68.338433 114.798158 
L 68.481466 115.172186 
L 68.6245 115.216189 
L 68.910567 114.952169 
L 69.0536 115.3702 
L 69.196634 115.084179 
L 69.339667 115.260192 
L 69.768768 115.018174 
L 69.911802 115.282194 
L 70.054835 115.150184 
L 70.197869 115.194187 
L 70.340902 114.930168 
L 70.626969 115.216189 
L 70.770003 114.952169 
L 70.913036 115.172186 
L 71.05607 114.886164 
L 71.199103 115.348199 
L 71.342137 114.842161 
L 71.485171 115.23819 
L 71.628204 115.304195 
L 71.771238 115.172186 
L 71.914271 114.732153 
L 72.057305 115.23819 
L 72.200338 115.062177 
L 72.343372 115.3702 
L 72.486405 115.392202 
L 72.629439 114.974171 
L 72.915506 115.084179 
L 73.05854 115.018174 
L 73.201573 115.50221 
L 73.344607 115.040176 
L 73.48764 114.996172 
L 73.630674 115.216189 
L 73.773707 115.062177 
L 73.916741 115.282194 
L 74.202808 114.732153 
L 74.345841 115.326197 
L 74.488875 114.930168 
L 74.631909 115.194187 
L 74.774942 114.776156 
L 74.917976 115.150184 
L 75.061009 114.798158 
L 75.204043 115.216189 
L 75.347076 114.776156 
L 75.49011 115.216189 
L 75.633143 115.172186 
L 75.776177 115.282194 
L 75.91921 114.842161 
L 76.062244 114.930168 
L 76.205278 114.886164 
L 76.348311 115.216189 
L 76.491345 115.150184 
L 76.634378 115.326197 
L 76.777412 114.886164 
L 77.349546 115.106181 
L 77.492579 114.864163 
L 77.92168 115.106181 
L 78.064714 115.106181 
L 78.207747 115.392202 
L 78.350781 115.018174 
L 78.493814 115.040176 
L 78.636848 115.194187 
L 79.065948 114.776156 
L 79.352016 115.172186 
L 79.495049 115.106181 
L 79.638083 114.842161 
L 79.92415 115.172186 
L 80.067183 115.216189 
L 80.210217 115.436205 
L 80.496284 114.908166 
L 80.639317 115.062177 
L 80.925385 114.908166 
L 81.068418 115.568215 
L 81.497519 114.908166 
L 81.640552 114.864163 
L 81.783586 115.282194 
L 81.926619 115.018174 
L 82.069653 115.018174 
L 82.212686 115.194187 
L 82.35572 114.908166 
L 82.498754 115.216189 
L 82.641787 114.996172 
L 82.784821 115.216189 
L 82.927854 115.040176 
L 83.213921 115.106181 
L 83.356955 115.106181 
L 83.499988 114.622145 
L 83.643022 114.930168 
L 83.786055 114.732153 
L 84.072123 115.172186 
L 84.215156 114.314122 
L 84.35819 115.304195 
L 84.501223 115.106181 
L 84.644257 115.172186 
L 84.78729 115.062177 
L 84.930324 115.216189 
L 85.073357 114.798158 
L 85.216391 112.597994 
L 85.359424 88.792228 
L 85.502458 103.731337 
L 85.788525 89.62829 
L 85.931559 103.027284 
L 86.074592 79.617547 
L 86.360659 113.302047 
L 86.503693 115.216189 
L 86.646726 115.150184 
L 86.78976 115.260192 
L 86.932793 114.182112 
L 87.361894 114.798158 
L 87.504928 114.820159 
L 87.790995 115.018174 
L 88.077062 115.304195 
L 88.363129 114.864163 
L 88.506162 114.974171 
L 88.649196 115.304195 
L 88.79223 115.23819 
L 88.935263 114.974171 
L 89.078297 115.150184 
L 89.22133 115.062177 
L 89.364364 115.304195 
L 89.650431 115.216189 
L 89.793464 114.930168 
L 90.079531 115.304195 
L 90.222565 114.820159 
L 90.365599 115.304195 
L 90.508632 114.886164 
L 90.651666 115.568215 
L 90.794699 115.128182 
L 91.080766 114.996172 
L 91.2238 115.194187 
L 91.366833 114.798158 
L 91.509867 115.414203 
L 91.795934 114.908166 
L 91.938968 114.952169 
L 92.082001 114.754154 
L 92.225035 114.996172 
L 92.368068 115.018174 
L 92.654135 114.468133 
L 92.797169 114.512137 
L 92.940202 114.886164 
L 93.226269 114.666148 
L 93.369303 114.446132 
L 93.512337 113.302047 
L 93.65537 114.314122 
L 93.798404 113.940094 
L 94.084471 111.585919 
L 94.227504 113.940094 
L 94.656605 36.362337 
L 94.942672 100.937129 
L 95.085706 108.813714 
L 95.228739 93.918608 
L 95.371773 91.278412 
L 95.514806 92.99454 
L 95.65784 93.324564 
L 95.943907 113.21404 
L 96.08694 110.177815 
L 96.373007 114.754154 
L 96.516041 114.864163 
L 96.659075 114.138109 
L 96.802108 114.776156 
L 97.088175 114.710151 
L 97.517276 115.062177 
L 97.660309 114.974171 
L 98.08941 115.260192 
L 98.232444 114.996172 
L 98.375477 115.216189 
L 98.518511 115.194187 
L 98.661544 115.436205 
L 98.947611 114.996172 
L 99.233678 115.23819 
L 99.519745 115.062177 
L 99.662779 115.194187 
L 99.805813 115.084179 
L 99.948846 115.3702 
L 100.09188 114.842161 
L 100.234913 115.172186 
L 100.377947 114.930168 
L 100.807047 115.458207 
L 100.950081 114.952169 
L 101.093114 115.326197 
L 101.236148 115.326197 
L 101.379182 115.040176 
L 101.522215 115.194187 
L 101.808282 114.930168 
L 101.951316 114.864163 
L 102.094349 115.282194 
L 102.237383 115.018174 
L 102.380416 115.194187 
L 102.52345 115.062177 
L 102.666483 115.282194 
L 102.809517 115.172186 
L 102.952551 115.282194 
L 103.238618 115.128182 
L 103.381651 114.358125 
L 103.524685 114.600143 
L 103.667718 115.062177 
L 103.810752 114.996172 
L 104.096819 115.326197 
L 104.239852 115.172186 
L 104.382886 114.534138 
L 104.52592 115.084179 
L 104.668953 114.842161 
L 104.811987 114.952169 
L 104.95502 114.754154 
L 105.098054 115.084179 
L 105.384121 114.666148 
L 105.670188 113.148035 
L 105.813221 115.216189 
L 105.956255 114.55614 
L 106.099289 115.216189 
L 106.242322 114.930168 
L 106.385356 115.106181 
L 106.528389 114.996172 
L 107.100523 115.348199 
L 107.38659 115.172186 
L 107.529624 115.216189 
L 107.815691 114.776156 
L 108.101758 115.172186 
L 108.244792 115.040176 
L 108.530859 115.282194 
L 108.673892 115.018174 
L 108.816926 115.150184 
L 108.959959 114.908166 
L 109.38906 115.084179 
L 109.532094 115.326197 
L 109.675127 114.974171 
L 109.961194 115.194187 
L 110.104228 115.018174 
L 110.390295 115.216189 
L 110.533328 114.974171 
L 110.819396 115.194187 
L 110.962429 115.150184 
L 111.105463 114.842161 
L 111.39153 115.260192 
L 111.534563 115.040176 
L 111.677597 115.106181 
L 111.82063 115.304195 
L 111.963664 115.282194 
L 112.106697 115.018174 
L 112.249731 115.23819 
L 112.535798 114.732153 
L 112.678832 114.116107 
L 112.821865 114.644146 
L 113.107932 113.764081 
L 113.250966 110.947872 
L 113.393999 111.255895 
L 113.537033 111.981949 
L 113.680066 113.61007 
L 113.8231 113.742079 
L 113.966134 114.248117 
L 114.109167 113.698076 
L 114.395234 114.974171 
L 114.538268 114.886164 
L 114.681301 115.260192 
L 114.824335 115.018174 
L 115.253435 114.930168 
L 115.396469 114.512137 
L 115.539503 114.908166 
L 115.682536 114.710151 
L 115.82557 114.732153 
L 116.111637 115.106181 
L 116.25467 114.930168 
L 116.540737 115.216189 
L 116.683771 114.864163 
L 116.969838 115.084179 
L 117.112871 115.150184 
L 117.255905 114.644146 
L 117.398939 115.304195 
L 117.685006 114.68815 
L 117.828039 114.996172 
L 117.971073 114.952169 
L 118.114106 114.468133 
L 118.400173 115.128182 
L 118.543207 114.930168 
L 118.68624 114.42413 
L 118.829274 110.639849 
L 118.972308 114.930168 
L 119.258375 115.216189 
L 119.401408 114.908166 
L 119.544442 114.29212 
L 119.830509 115.062177 
L 119.973542 114.68815 
L 120.116576 115.150184 
L 120.402643 114.820159 
L 120.68871 114.996172 
L 121.260844 99.881051 
L 121.403878 97.130847 
L 121.546911 111.585919 
L 121.689945 114.512137 
L 121.832978 114.798158 
L 121.976012 114.270119 
L 122.119046 114.952169 
L 122.405113 113.874089 
L 122.548146 114.29212 
L 122.69118 113.61007 
L 122.977247 87.758151 
L 123.12028 102.917276 
L 123.263314 104.85342 
L 123.549381 112.091957 
L 123.835448 115.3702 
L 124.121515 113.566066 
L 124.407582 114.886164 
L 124.550616 115.062177 
L 124.693649 114.974171 
L 124.979716 114.42413 
L 125.265784 115.018174 
L 125.694884 114.798158 
L 125.837918 115.018174 
L 126.123985 114.842161 
L 126.267018 114.42413 
L 126.410052 114.578141 
L 126.696119 115.282194 
L 126.839153 114.842161 
L 126.982186 115.23819 
L 127.12522 114.886164 
L 127.411287 115.23819 
L 127.55432 115.392202 
L 127.840387 115.106181 
L 127.983421 115.216189 
L 128.126454 114.68815 
L 128.269488 114.908166 
L 128.412522 114.446132 
L 128.555555 114.886164 
L 128.698589 114.29212 
L 128.984656 115.062177 
L 129.127689 114.974171 
L 129.270723 115.172186 
L 129.413756 115.128182 
L 129.55679 115.23819 
L 129.699823 114.974171 
L 129.985891 115.3702 
L 130.128924 114.864163 
L 130.414991 115.260192 
L 130.701058 115.436205 
L 130.844092 115.018174 
L 130.987125 115.304195 
L 131.130159 115.260192 
L 131.416226 115.018174 
L 131.55926 115.23819 
L 131.845327 114.908166 
L 131.98836 115.282194 
L 132.131394 114.908166 
L 132.274427 114.886164 
L 132.417461 114.666148 
L 132.560494 115.282194 
L 132.703528 115.194187 
L 132.846561 115.326197 
L 132.989595 114.842161 
L 133.132629 115.150184 
L 133.275662 115.194187 
L 133.418696 115.018174 
L 133.561729 115.392202 
L 133.704763 115.194187 
L 133.847796 115.458207 
L 133.99083 115.23819 
L 134.276897 115.568215 
L 134.41993 114.974171 
L 134.562964 114.930168 
L 134.705998 115.436205 
L 134.849031 115.150184 
L 134.992065 115.282194 
L 135.421165 115.084179 
L 135.564199 115.3702 
L 135.707232 115.23819 
L 135.850266 115.524212 
L 136.136333 115.216189 
L 136.279367 115.414203 
L 136.4224 115.150184 
L 136.565434 115.480208 
L 136.708467 115.216189 
L 136.851501 115.348199 
L 136.994534 115.326197 
L 137.137568 115.084179 
L 137.280601 115.062177 
L 137.423635 115.326197 
L 137.566668 114.908166 
L 137.995769 115.458207 
L 138.138803 115.150184 
L 138.281836 115.392202 
L 138.42487 115.172186 
L 138.85397 115.392202 
L 138.997004 114.996172 
L 139.283071 115.326197 
L 139.426105 114.930168 
L 139.855205 115.128182 
L 140.141272 115.458207 
L 140.284306 115.150184 
L 140.427339 115.546213 
L 140.570373 115.216189 
L 140.713406 115.612218 
L 140.999474 115.172186 
L 141.142507 115.018174 
L 141.428574 115.326197 
L 141.571608 114.842161 
L 141.857675 115.216189 
L 142.000708 114.754154 
L 142.143742 115.348199 
L 142.286775 115.3702 
L 142.572843 115.128182 
L 142.715876 115.612218 
L 142.85891 115.172186 
L 143.001943 115.3702 
L 143.144977 114.996172 
L 143.28801 115.546213 
L 143.431044 115.084179 
L 143.574077 115.172186 
L 143.717111 115.062177 
L 143.860144 115.260192 
L 144.003178 115.23819 
L 144.146212 114.996172 
L 144.289245 115.23819 
L 144.432279 115.084179 
L 144.575312 115.590217 
L 144.718346 115.414203 
L 144.861379 115.018174 
L 145.147446 115.282194 
L 145.29048 114.908166 
L 145.576547 115.304195 
L 146.005648 115.23819 
L 146.148681 115.392202 
L 146.291715 114.952169 
L 146.434748 115.018174 
L 147.006882 113.874089 
L 147.149916 114.446132 
L 147.435983 107.95565 
L 147.579017 98.824972 
L 147.865084 115.216189 
L 148.008117 115.106181 
L 148.151151 115.282194 
L 148.294184 112.201965 
L 148.437218 115.172186 
L 148.580251 115.062177 
L 148.723285 113.412055 
L 148.866319 114.490135 
L 149.009352 114.55614 
L 149.152386 114.820159 
L 149.295419 114.622145 
L 149.438453 115.282194 
L 149.867553 114.974171 
L 150.010587 115.392202 
L 150.296654 114.864163 
L 150.439688 115.260192 
L 150.582721 114.336123 
L 150.725755 115.260192 
L 150.868788 115.348199 
L 151.011822 114.996172 
L 151.154855 113.61007 
L 151.297889 115.128182 
L 151.440922 115.194187 
L 151.583956 115.018174 
L 151.726989 115.3702 
L 151.870023 115.040176 
L 152.013057 115.128182 
L 152.15609 114.68815 
L 152.442157 115.414203 
L 152.585191 115.23819 
L 152.728224 115.304195 
L 153.157325 115.084179 
L 153.300358 115.23819 
L 153.586426 115.128182 
L 154.015526 115.392202 
L 154.15856 114.996172 
L 154.301593 115.326197 
L 154.444627 115.304195 
L 154.58766 115.546213 
L 155.016761 114.952169 
L 155.302828 115.216189 
L 155.588895 114.996172 
L 155.731929 115.260192 
L 156.447096 115.106181 
L 156.59013 114.732153 
L 156.876197 115.392202 
L 157.019231 115.106181 
L 157.162264 115.282194 
L 157.448331 115.348199 
L 157.591365 115.018174 
L 157.734398 114.974171 
L 158.020465 115.282194 
L 158.163499 115.040176 
L 158.306533 115.260192 
L 158.449566 115.216189 
L 158.5926 115.348199 
L 159.450801 115.304195 
L 159.593834 115.040176 
L 160.022935 115.436205 
L 160.165969 115.040176 
L 160.738103 115.3702 
L 160.881136 115.260192 
L 161.167203 115.50221 
L 161.453271 115.040176 
L 161.596304 114.864163 
L 161.739338 115.172186 
L 161.882371 114.952169 
L 162.025405 115.436205 
L 162.168438 115.326197 
L 162.454505 115.3702 
L 162.597539 115.260192 
L 162.740572 115.480208 
L 162.883606 115.3702 
L 163.02664 114.974171 
L 163.169673 115.392202 
L 163.312707 111.541916 
L 163.598774 115.458207 
L 163.741807 115.150184 
L 163.884841 115.172186 
L 164.027874 114.974171 
L 164.170908 114.336123 
L 164.313941 114.512137 
L 164.456975 114.42413 
L 164.600009 114.996172 
L 164.743042 114.930168 
L 164.886076 115.546213 
L 165.172143 114.952169 
L 166.316411 115.150184 
L 166.602478 115.348199 
L 166.745512 115.392202 
L 167.317646 114.886164 
L 167.603713 115.348199 
L 167.746747 114.974171 
L 167.88978 115.326197 
L 168.032814 115.216189 
L 168.318881 115.3702 
L 168.604948 114.952169 
L 168.747981 114.996172 
L 169.177082 115.436205 
L 169.320116 115.23819 
L 169.606183 115.282194 
L 169.749216 115.062177 
L 170.32135 115.150184 
L 170.464384 115.040176 
L 170.607417 115.304195 
L 170.893485 115.018174 
L 171.036518 115.304195 
L 171.179552 115.216189 
L 171.322585 115.392202 
L 171.465619 114.886164 
L 171.751686 115.23819 
L 172.180786 114.908166 
L 172.466854 115.216189 
L 172.752921 115.084179 
L 172.895954 115.304195 
L 173.038988 115.062177 
L 173.182021 115.260192 
L 173.468088 114.930168 
L 173.611122 115.282194 
L 173.754155 115.040176 
L 173.897189 115.326197 
L 174.040223 115.128182 
L 174.183256 115.172186 
L 174.32629 115.062177 
L 174.469323 115.304195 
L 174.612357 115.216189 
L 174.75539 115.260192 
L 174.898424 114.710151 
L 175.041457 115.436205 
L 175.184491 115.194187 
L 175.327524 115.23819 
L 175.613592 114.930168 
L 175.756625 115.282194 
L 175.899659 115.304195 
L 176.185726 114.974171 
L 176.328759 115.436205 
L 176.471793 115.194187 
L 176.614826 115.348199 
L 176.75786 115.282194 
L 177.043927 114.842161 
L 177.186961 115.282194 
L 177.329994 115.172186 
L 177.473028 115.260192 
L 177.616061 115.018174 
L 177.759095 115.414203 
L 178.331229 114.908166 
L 178.617296 115.3702 
L 178.760329 115.524212 
L 179.046397 115.282194 
L 179.475497 115.3702 
L 179.618531 114.776156 
L 179.761564 115.458207 
L 179.904598 114.820159 
L 180.047631 115.348199 
L 180.190665 115.150184 
L 180.476732 115.128182 
L 180.619766 114.908166 
L 181.048866 115.23819 
L 181.1919 114.974171 
L 181.334933 115.216189 
L 181.621 114.55614 
L 181.764034 114.820159 
L 181.907067 113.47806 
L 182.050101 108.395683 
L 182.336168 113.324048 
L 182.479202 112.818011 
L 182.622235 111.805936 
L 182.765269 109.429759 
L 182.908302 110.331826 
L 183.051336 113.698076 
L 183.194369 114.42413 
L 183.480436 114.622145 
L 183.62347 115.216189 
L 183.909537 114.930168 
L 184.052571 114.996172 
L 184.195604 114.930168 
L 184.338638 114.732153 
L 184.481671 114.842161 
L 184.624705 114.776156 
L 184.767738 114.996172 
L 184.910772 114.908166 
L 185.053805 115.150184 
L 185.339873 115.018174 
L 185.482906 114.886164 
L 185.62594 115.128182 
L 186.05504 115.062177 
L 186.198074 114.820159 
L 186.484141 115.040176 
L 186.627174 115.128182 
L 186.770208 114.952169 
L 186.913242 114.996172 
L 187.056275 114.820159 
L 187.199309 114.930168 
L 187.342342 114.820159 
L 187.485376 114.952169 
L 187.628409 115.260192 
L 187.771443 113.940094 
L 188.05751 114.952169 
L 188.772678 115.062177 
L 188.915711 105.227448 
L 189.201778 115.018174 
L 189.344812 112.26797 
L 189.487845 85.800006 
L 189.630879 111.761932 
L 189.773912 114.996172 
L 190.05998 115.150184 
L 190.346047 114.996172 
L 190.48908 114.930168 
L 190.632114 109.385756 
L 190.775147 114.314122 
L 190.918181 105.513469 
L 191.204248 114.270119 
L 191.347281 114.578141 
L 191.490315 108.527692 
L 191.633349 108.813714 
L 191.776382 91.234409 
L 191.919416 113.060029 
L 192.062449 114.754154 
L 192.205483 101.839196 
L 192.348516 112.840012 
L 192.634583 111.739931 
L 192.777617 115.216189 
L 192.92065 113.984097 
L 193.206718 101.311157 
L 193.349751 108.76971 
L 193.492785 107.163591 
L 193.635818 114.776156 
L 193.778852 114.820159 
L 193.921885 114.29212 
L 194.064919 114.29212 
L 194.207952 114.16011 
L 194.350986 110.155813 
L 194.494019 114.050102 
L 194.637053 110.749857 
L 194.780087 113.940094 
L 194.92312 107.295601 
L 195.066154 114.842161 
L 195.352221 113.896091 
L 195.495254 106.525544 
L 195.638288 114.42413 
L 195.781321 115.106181 
L 196.067388 115.018174 
L 196.210422 115.106181 
L 196.496489 114.930168 
L 196.639523 115.3702 
L 196.92559 115.062177 
L 197.35469 114.820159 
L 197.497724 114.930168 
L 197.640757 115.282194 
L 197.926825 115.282194 
L 198.212892 114.842161 
L 198.212892 114.842161 
" clip-path="url(#p8ec7b996f5)" style="fill: none; stroke: #c31e23; stroke-width: 2; stroke-linecap: square"/>
   </g>
   <g id="line2d_14">
    <path d="M 26.715671 107.317603 
L 26.858704 114.072104 
L 27.001738 114.974171 
L 27.144772 113.104032 
L 27.287805 109.539768 
L 27.430839 93.896607 
L 27.573872 114.42413 
L 27.716906 115.172186 
L 27.859939 92.664515 
L 28.002973 94.380643 
L 28.146006 84.831934 
L 28.28904 89.430275 
L 28.575107 114.446132 
L 28.718141 113.852088 
L 28.861174 105.315454 
L 29.290275 114.886164 
L 29.433308 114.732153 
L 29.719375 115.084179 
L 29.862409 113.764081 
L 30.005442 114.886164 
L 30.148476 114.358125 
L 30.29151 115.084179 
L 30.577577 114.622145 
L 30.72061 114.908166 
L 30.863644 114.908166 
L 31.006677 114.622145 
L 31.292744 115.084179 
L 31.435778 115.084179 
L 31.578811 114.798158 
L 31.864879 114.952169 
L 32.007912 107.097586 
L 32.150946 115.106181 
L 32.293979 114.776156 
L 32.580046 115.084179 
L 32.72308 114.732153 
L 32.866113 115.23819 
L 33.15218 115.018174 
L 33.581281 114.380127 
L 33.724315 113.390053 
L 34.010382 114.776156 
L 34.153415 109.759784 
L 34.439482 93.038543 
L 34.582516 98.208927 
L 34.868583 73.897123 
L 35.011617 79.287523 
L 35.297684 108.483689 
L 35.440717 111.805936 
L 35.583751 112.113959 
L 35.726784 114.974171 
L 35.869818 114.446132 
L 36.012851 112.575993 
L 36.155885 114.908166 
L 36.298918 115.128182 
L 36.584986 114.842161 
L 36.871053 115.194187 
L 37.014086 115.326197 
L 37.15712 114.600143 
L 37.443187 115.040176 
L 37.58622 115.150184 
L 37.729254 115.084179 
L 37.872287 114.138109 
L 38.015321 115.216189 
L 38.158355 114.336123 
L 38.444422 115.260192 
L 38.587455 114.42413 
L 38.730489 114.930168 
L 38.873522 114.842161 
L 39.016556 115.216189 
L 39.159589 115.106181 
L 39.302623 115.150184 
L 39.445656 114.776156 
L 39.58869 114.974171 
L 39.731724 114.864163 
L 39.874757 115.018174 
L 40.017791 114.886164 
L 40.160824 114.996172 
L 40.303858 114.842161 
L 40.589925 115.018174 
L 40.875992 114.996172 
L 41.019025 115.018174 
L 41.162059 114.732153 
L 41.448126 115.172186 
L 41.59116 114.974171 
L 41.734193 115.304195 
L 41.877227 115.106181 
L 42.02026 115.194187 
L 42.163294 114.908166 
L 42.306327 115.106181 
L 42.592394 115.040176 
L 42.735428 115.128182 
L 42.878462 115.458207 
L 43.307562 114.908166 
L 43.450596 115.348199 
L 43.593629 115.23819 
L 43.736663 115.392202 
L 44.02273 115.23819 
L 44.165763 115.436205 
L 44.308797 115.282194 
L 44.451831 115.392202 
L 45.023965 115.040176 
L 45.166998 115.194187 
L 45.453065 115.128182 
L 45.596099 115.524212 
L 46.0252 115.128182 
L 46.168233 115.414203 
L 46.4543 115.018174 
L 46.597334 115.040176 
L 46.740367 115.194187 
L 46.883401 114.930168 
L 47.026434 115.260192 
L 47.169468 115.172186 
L 47.312501 115.348199 
L 47.598569 115.326197 
L 47.741602 115.348199 
L 47.884636 115.216189 
L 48.027669 115.348199 
L 48.170703 115.150184 
L 48.45677 115.194187 
L 48.88587 115.414203 
L 49.314971 114.842161 
L 49.458005 115.568215 
L 49.744072 114.996172 
L 49.887105 115.3702 
L 50.030139 115.172186 
L 50.173172 115.414203 
L 50.316206 115.150184 
L 50.602273 115.282194 
L 50.88834 115.128182 
L 51.031374 115.348199 
L 51.460474 115.194187 
L 51.746541 115.63422 
L 51.889575 115.062177 
L 52.032608 115.458207 
L 52.175642 115.062177 
L 52.318676 115.458207 
L 52.461709 115.3702 
L 52.604743 115.436205 
L 53.176877 115.23819 
L 53.31991 115.392202 
L 53.605977 115.216189 
L 53.749011 115.018174 
L 53.892045 115.50221 
L 54.035078 114.842161 
L 54.178112 115.194187 
L 54.321145 115.040176 
L 54.464179 115.150184 
L 54.607212 115.084179 
L 54.893279 115.3702 
L 55.32238 115.392202 
L 55.465413 115.106181 
L 55.894514 115.3702 
L 56.037548 115.106181 
L 56.180581 115.216189 
L 56.323615 115.150184 
L 56.609682 115.282194 
L 56.752715 115.150184 
L 57.181816 115.348199 
L 57.32485 115.084179 
L 57.467883 115.436205 
L 57.610917 114.952169 
L 57.75395 115.150184 
L 57.896984 115.062177 
L 58.326084 115.194187 
L 58.755185 115.304195 
L 59.041252 115.414203 
L 59.184286 115.040176 
L 59.327319 115.040176 
L 59.470353 115.50221 
L 59.75642 115.150184 
L 59.899453 115.304195 
L 60.042487 115.040176 
L 60.328554 115.3702 
L 60.614621 114.864163 
L 60.757655 115.23819 
L 60.900688 114.974171 
L 61.186755 115.414203 
L 61.472822 115.150184 
L 61.615856 115.458207 
L 61.758889 115.260192 
L 61.901923 115.612218 
L 62.331024 115.23819 
L 62.474057 115.392202 
L 62.617091 115.106181 
L 62.760124 115.282194 
L 63.046191 115.018174 
L 63.189225 114.864163 
L 63.332258 115.326197 
L 63.761359 115.040176 
L 63.904393 115.282194 
L 64.047426 115.128182 
L 64.19046 115.50221 
L 64.333493 115.106181 
L 64.476527 115.260192 
L 64.61956 115.106181 
L 64.762594 115.304195 
L 64.905627 115.018174 
L 65.048661 115.062177 
L 65.191695 114.886164 
L 65.334728 115.392202 
L 65.906862 115.414203 
L 66.192929 115.414203 
L 66.478996 114.996172 
L 66.62203 115.172186 
L 66.765064 115.018174 
L 66.908097 115.414203 
L 67.337198 115.282194 
L 67.623265 115.612218 
L 67.766298 115.084179 
L 68.052365 115.458207 
L 68.195399 114.996172 
L 68.481466 115.458207 
L 68.6245 115.23819 
L 68.767533 115.568215 
L 68.910567 115.128182 
L 69.0536 115.656221 
L 69.339667 115.216189 
L 69.482701 115.436205 
L 69.768768 115.458207 
L 69.911802 115.150184 
L 70.054835 115.282194 
L 70.197869 115.062177 
L 70.340902 115.480208 
L 70.483936 115.216189 
L 70.626969 115.524212 
L 70.913036 115.546213 
L 71.05607 115.23819 
L 71.199103 115.700225 
L 71.342137 115.23819 
L 71.485171 115.282194 
L 71.628204 115.480208 
L 71.914271 115.23819 
L 72.057305 115.282194 
L 72.200338 115.50221 
L 72.343372 115.194187 
L 72.629439 115.63422 
L 72.915506 115.018174 
L 73.344607 115.106181 
L 73.48764 115.436205 
L 73.916741 115.172186 
L 74.202808 115.040176 
L 74.488875 115.326197 
L 74.631909 115.172186 
L 74.774942 115.282194 
L 74.917976 114.930168 
L 75.061009 115.260192 
L 75.204043 115.084179 
L 75.347076 115.172186 
L 75.49011 115.106181 
L 75.633143 115.260192 
L 75.91921 115.062177 
L 76.205278 115.392202 
L 76.348311 115.128182 
L 76.634378 115.260192 
L 76.920445 115.084179 
L 77.063479 115.348199 
L 77.206512 115.018174 
L 77.492579 115.524212 
L 77.92168 115.106181 
L 78.064714 115.040176 
L 78.207747 115.326197 
L 78.493814 115.23819 
L 78.636848 115.348199 
L 79.065948 114.710151 
L 79.208982 115.282194 
L 79.352016 115.040176 
L 79.495049 115.326197 
L 79.638083 115.018174 
L 79.781116 115.480208 
L 79.92415 114.732153 
L 80.210217 115.414203 
L 80.35325 115.018174 
L 80.496284 115.50221 
L 80.639317 115.128182 
L 80.782351 115.172186 
L 80.925385 115.3702 
L 81.068418 115.106181 
L 81.211452 115.392202 
L 81.354485 115.128182 
L 81.640552 115.414203 
L 81.783586 114.754154 
L 81.926619 115.414203 
L 82.069653 115.50221 
L 82.212686 115.216189 
L 82.498754 115.23819 
L 82.784821 114.952169 
L 82.927854 115.3702 
L 83.070888 115.062177 
L 83.356955 115.436205 
L 83.643022 114.974171 
L 84.072123 115.414203 
L 84.215156 115.326197 
L 84.35819 114.974171 
L 84.501223 115.612218 
L 84.78729 115.062177 
L 85.073357 115.414203 
L 85.216391 114.512137 
L 85.359424 115.194187 
L 85.645492 115.392202 
L 85.788525 115.260192 
L 85.931559 115.50221 
L 86.074592 115.436205 
L 86.217626 115.018174 
L 86.360659 115.612218 
L 86.646726 115.50221 
L 86.78976 115.3702 
L 86.932793 114.908166 
L 87.075827 115.326197 
L 87.218861 115.392202 
L 87.361894 115.172186 
L 87.647961 115.304195 
L 87.790995 115.106181 
L 88.220095 115.612218 
L 88.363129 115.062177 
L 88.506162 115.23819 
L 88.649196 115.128182 
L 88.79223 115.282194 
L 88.935263 115.106181 
L 89.078297 115.348199 
L 89.364364 114.908166 
L 89.507397 115.436205 
L 89.650431 115.326197 
L 89.793464 115.524212 
L 90.079531 115.062177 
L 90.222565 115.282194 
L 90.365599 115.040176 
L 90.794699 115.084179 
L 91.080766 114.930168 
L 91.2238 114.930168 
L 91.366833 114.754154 
L 91.509867 114.226115 
L 91.6529 114.820159 
L 91.795934 114.182112 
L 91.938968 114.42413 
L 92.082001 112.928019 
L 92.225035 113.390053 
L 92.368068 110.551843 
L 92.511102 111.849939 
L 92.654135 110.023803 
L 92.797169 95.524728 
L 92.940202 103.51132 
L 93.083236 78.671477 
L 93.226269 104.765413 
L 93.369303 60.762148 
L 93.512337 100.343085 
L 93.798404 109.759784 
L 94.227504 114.182112 
L 94.370538 114.248117 
L 94.513571 114.644146 
L 94.656605 114.402128 
L 94.942672 115.106181 
L 95.085706 114.820159 
L 95.228739 114.886164 
L 95.371773 115.326197 
L 95.800873 115.084179 
L 95.943907 115.216189 
L 96.229974 115.216189 
L 96.373007 114.974171 
L 96.516041 115.414203 
L 96.945142 115.282194 
L 97.088175 115.3702 
L 97.374242 114.864163 
L 97.517276 115.194187 
L 97.803343 115.23819 
L 97.946376 115.392202 
L 98.08941 115.084179 
L 98.375477 115.150184 
L 98.518511 115.326197 
L 98.661544 115.23819 
L 98.804578 115.436205 
L 98.947611 115.062177 
L 99.090645 115.3702 
L 99.233678 115.084179 
L 99.376712 115.458207 
L 99.519745 114.974171 
L 99.805813 115.260192 
L 99.948846 115.348199 
L 100.09188 115.194187 
L 100.234913 114.864163 
L 100.377947 115.392202 
L 100.52098 115.150184 
L 100.664014 115.282194 
L 100.807047 115.194187 
L 100.950081 114.908166 
L 101.093114 115.3702 
L 101.236148 115.326197 
L 101.379182 115.084179 
L 101.522215 115.106181 
L 101.665249 115.348199 
L 101.808282 112.377978 
L 102.094349 102.015209 
L 102.237383 105.66748 
L 102.380416 115.282194 
L 102.52345 115.260192 
L 102.666483 114.952169 
L 102.809517 115.260192 
L 102.952551 114.930168 
L 103.095584 115.414203 
L 103.238618 115.348199 
L 103.381651 114.952169 
L 103.524685 115.260192 
L 103.667718 114.908166 
L 103.953785 115.062177 
L 104.096819 115.304195 
L 104.239852 115.260192 
L 104.52592 114.336123 
L 104.811987 115.062177 
L 104.95502 114.336123 
L 105.098054 114.204114 
L 105.241087 114.226115 
L 105.527154 115.106181 
L 106.099289 115.150184 
L 106.242322 114.974171 
L 106.385356 108.90172 
L 106.671423 113.940094 
L 106.814456 113.61007 
L 106.95749 114.864163 
L 107.100523 114.29212 
L 107.243557 115.062177 
L 107.38659 114.754154 
L 107.529624 114.776156 
L 107.672658 115.194187 
L 107.958725 114.842161 
L 108.101758 115.150184 
L 108.244792 110.37583 
L 108.530859 114.248117 
L 108.816926 114.776156 
L 108.959959 114.600143 
L 109.102993 115.128182 
L 109.246027 115.172186 
L 109.532094 114.820159 
L 109.675127 115.062177 
L 109.818161 115.018174 
L 109.961194 115.326197 
L 110.104228 115.260192 
L 110.247261 114.864163 
L 110.390295 114.908166 
L 110.676362 115.304195 
L 110.819396 114.842161 
L 110.962429 114.776156 
L 111.105463 115.084179 
L 111.39153 114.182112 
L 111.534563 114.908166 
L 111.677597 114.42413 
L 111.82063 114.820159 
L 111.963664 114.666148 
L 112.106697 114.710151 
L 112.535798 112.862014 
L 112.678832 111.937946 
L 112.964899 99.154997 
L 113.107932 87.186109 
L 113.250966 84.787931 
L 113.537033 102.323232 
L 113.680066 103.225299 
L 113.8231 100.893126 
L 113.966134 108.703706 
L 114.109167 110.199817 
L 114.252201 113.016026 
L 114.824335 114.600143 
L 114.967368 114.138109 
L 115.253435 115.150184 
L 115.539503 114.842161 
L 115.682536 115.018174 
L 115.82557 114.754154 
L 116.111637 114.886164 
L 116.25467 114.534138 
L 116.540737 114.644146 
L 116.683771 107.229596 
L 116.826804 114.710151 
L 117.112871 114.314122 
L 117.255905 114.380127 
L 117.685006 115.018174 
L 117.971073 115.150184 
L 118.400173 114.446132 
L 118.68624 115.040176 
L 118.829274 113.08203 
L 118.972308 114.732153 
L 119.115341 114.578141 
L 119.258375 114.996172 
L 119.401408 114.29212 
L 119.544442 114.908166 
L 119.687475 114.490135 
L 119.830509 114.468133 
L 119.973542 114.644146 
L 120.116576 114.204114 
L 120.259609 114.930168 
L 120.402643 114.908166 
L 120.545677 113.236042 
L 120.68871 113.786083 
L 120.831744 115.194187 
L 120.974777 115.216189 
L 121.117811 114.886164 
L 121.260844 114.908166 
L 121.403878 111.299898 
L 121.689945 94.732669 
L 121.832978 107.515617 
L 121.976012 88.506207 
L 122.548146 115.172186 
L 122.69118 114.996172 
L 122.834213 115.150184 
L 123.12028 109.385756 
L 123.406347 115.150184 
L 123.549381 114.886164 
L 123.692415 115.348199 
L 123.978482 114.930168 
L 124.693649 114.930168 
L 124.836683 115.282194 
L 124.979716 114.55614 
L 125.12275 115.216189 
L 125.265784 114.996172 
L 125.551851 115.084179 
L 125.837918 114.644146 
L 125.980951 114.908166 
L 126.267018 114.490135 
L 126.410052 115.084179 
L 126.553085 115.194187 
L 126.696119 114.952169 
L 127.12522 115.150184 
L 127.268253 115.414203 
L 127.411287 114.886164 
L 127.55432 114.930168 
L 127.697354 115.194187 
L 127.840387 114.798158 
L 128.126454 115.106181 
L 128.269488 114.842161 
L 128.412522 114.226115 
L 128.555555 114.908166 
L 128.698589 114.776156 
L 128.841622 115.084179 
L 128.984656 115.106181 
L 129.127689 115.414203 
L 129.270723 114.952169 
L 129.55679 115.568215 
L 129.699823 115.23819 
L 129.985891 115.172186 
L 130.128924 114.974171 
L 130.271958 115.348199 
L 130.558025 115.194187 
L 130.844092 115.260192 
L 130.987125 115.194187 
L 131.130159 115.260192 
L 131.416226 115.084179 
L 131.55926 115.282194 
L 131.845327 115.062177 
L 132.131394 115.348199 
L 132.417461 115.392202 
L 132.560494 115.216189 
L 133.418696 115.3702 
L 133.561729 114.974171 
L 133.704763 115.018174 
L 133.99083 115.348199 
L 134.133863 115.326197 
L 134.276897 115.106181 
L 134.562964 115.326197 
L 134.705998 115.150184 
L 134.992065 115.458207 
L 135.135098 115.414203 
L 135.278132 115.172186 
L 135.421165 115.590217 
L 135.707232 114.996172 
L 135.850266 114.996172 
L 135.993299 115.436205 
L 136.136333 114.996172 
L 136.565434 115.392202 
L 136.851501 115.106181 
L 136.994534 115.062177 
L 137.137568 115.260192 
L 137.423635 115.106181 
L 137.566668 115.128182 
L 137.709702 115.348199 
L 137.852736 114.930168 
L 137.995769 115.348199 
L 138.281836 115.172186 
L 138.567903 115.304195 
L 138.710937 115.150184 
L 138.85397 115.282194 
L 139.426105 115.150184 
L 139.569138 115.436205 
L 139.712172 115.194187 
L 139.998239 115.3702 
L 140.141272 114.974171 
L 140.284306 114.996172 
L 140.570373 115.392202 
L 140.713406 115.040176 
L 140.85644 115.568215 
L 140.999474 114.754154 
L 141.142507 115.326197 
L 141.285541 115.018174 
L 141.571608 115.326197 
L 141.714641 115.326197 
L 141.857675 115.656221 
L 142.000708 115.018174 
L 142.286775 115.3702 
L 142.429809 115.106181 
L 142.572843 115.524212 
L 142.715876 115.414203 
L 142.85891 114.908166 
L 143.001943 115.216189 
L 143.144977 114.886164 
L 143.574077 115.348199 
L 143.860144 115.260192 
L 144.575312 115.23819 
L 144.861379 115.084179 
L 145.004413 115.150184 
L 145.147446 114.886164 
L 145.29048 111.629923 
L 145.433513 114.732153 
L 145.862614 115.172186 
L 146.005648 114.754154 
L 146.148681 67.406641 
L 146.434748 111.475911 
L 146.577782 98.428943 
L 146.720815 103.049286 
L 146.863849 114.55614 
L 147.006882 113.280045 
L 147.149916 114.974171 
L 147.29295 114.952169 
L 147.435983 115.304195 
L 147.579017 115.260192 
L 147.865084 114.820159 
L 148.008117 115.194187 
L 148.151151 115.062177 
L 148.294184 115.128182 
L 148.580251 114.666148 
L 148.723285 115.326197 
L 148.866319 114.622145 
L 149.009352 115.436205 
L 149.152386 115.282194 
L 149.438453 115.436205 
L 149.72452 115.260192 
L 149.867553 115.436205 
L 150.010587 115.084179 
L 150.15362 115.260192 
L 150.296654 115.216189 
L 150.439688 115.018174 
L 150.582721 115.106181 
L 150.725755 114.930168 
L 150.868788 115.216189 
L 151.011822 114.908166 
L 151.154855 113.720078 
L 151.297889 114.974171 
L 151.440922 115.084179 
L 151.726989 114.820159 
L 151.870023 115.414203 
L 152.013057 114.842161 
L 152.15609 115.128182 
L 152.299124 114.952169 
L 152.442157 114.336123 
L 152.585191 114.314122 
L 152.871258 115.194187 
L 153.157325 115.260192 
L 153.300358 114.930168 
L 153.443392 115.260192 
L 153.586426 115.062177 
L 153.729459 115.348199 
L 153.872493 115.194187 
L 154.015526 115.3702 
L 154.301593 115.216189 
L 154.444627 115.23819 
L 154.58766 115.458207 
L 155.016761 114.952169 
L 155.302828 115.436205 
L 155.445862 114.842161 
L 155.588895 115.568215 
L 155.874962 115.084179 
L 156.161029 115.084179 
L 156.304063 115.216189 
L 156.59013 115.040176 
L 156.733164 114.930168 
L 156.876197 115.084179 
L 157.019231 114.974171 
L 157.162264 115.348199 
L 157.305298 115.172186 
L 157.448331 115.348199 
L 157.591365 115.150184 
L 157.734398 114.68815 
L 157.877432 115.106181 
L 158.020465 115.062177 
L 158.163499 115.172186 
L 158.449566 114.842161 
L 158.5926 115.23819 
L 158.878667 114.974171 
L 159.0217 115.216189 
L 159.307767 115.084179 
L 159.450801 115.282194 
L 159.593834 115.040176 
L 159.736868 115.3702 
L 159.879902 115.062177 
L 160.022935 115.480208 
L 160.165969 114.776156 
L 160.452036 115.392202 
L 160.595069 115.458207 
L 160.738103 115.348199 
L 160.881136 115.414203 
L 161.167203 114.996172 
L 161.310237 115.392202 
L 161.453271 115.150184 
L 161.596304 115.172186 
L 161.739338 114.864163 
L 161.882371 114.864163 
L 162.168438 115.524212 
L 162.597539 115.150184 
L 162.740572 115.392202 
L 163.169673 114.710151 
L 163.312707 115.326197 
L 163.45574 114.842161 
L 163.598774 115.392202 
L 163.741807 115.414203 
L 163.884841 114.930168 
L 164.027874 114.974171 
L 164.170908 114.270119 
L 164.313941 115.50221 
L 164.456975 115.172186 
L 164.600009 86.328045 
L 164.743042 99.661034 
L 165.029109 72.247 
L 165.172143 83.819859 
L 165.315176 114.072104 
L 165.45821 112.113959 
L 165.88731 114.534138 
L 166.030344 114.42413 
L 166.173378 115.018174 
L 166.316411 115.018174 
L 166.459445 114.55614 
L 166.602478 114.776156 
L 166.745512 115.348199 
L 167.031579 114.798158 
L 167.174612 115.216189 
L 167.317646 115.282194 
L 167.460679 115.018174 
L 167.603713 114.996172 
L 167.746747 115.128182 
L 167.88978 115.436205 
L 168.032814 115.414203 
L 168.175847 115.106181 
L 168.461914 115.172186 
L 168.604948 115.040176 
L 168.891015 115.524212 
L 169.034048 114.930168 
L 169.606183 115.304195 
L 169.749216 115.260192 
L 169.89225 115.392202 
L 170.178317 114.930168 
L 170.32135 115.23819 
L 170.464384 115.106181 
L 170.607417 115.172186 
L 170.750451 115.106181 
L 170.893485 115.194187 
L 171.036518 115.414203 
L 171.465619 115.106181 
L 171.608652 115.348199 
L 171.751686 115.216189 
L 171.894719 115.282194 
L 172.180786 115.084179 
L 172.32382 115.3702 
L 172.752921 114.776156 
L 172.895954 115.216189 
L 173.038988 114.996172 
L 173.468088 115.50221 
L 173.611122 115.150184 
L 173.754155 115.304195 
L 173.897189 114.798158 
L 174.32629 115.612218 
L 174.612357 114.864163 
L 174.75539 114.952169 
L 174.898424 115.326197 
L 175.041457 114.974171 
L 175.184491 115.326197 
L 175.327524 115.172186 
L 175.470558 115.326197 
L 175.613592 115.084179 
L 175.756625 115.172186 
L 175.899659 115.546213 
L 176.185726 115.040176 
L 176.328759 115.348199 
L 176.471793 115.326197 
L 176.614826 115.128182 
L 176.75786 115.194187 
L 176.900893 114.908166 
L 177.043927 115.326197 
L 177.329994 115.084179 
L 177.473028 115.436205 
L 177.616061 115.194187 
L 177.759095 115.348199 
L 177.902128 114.996172 
L 178.045162 115.084179 
L 178.188195 115.458207 
L 178.331229 114.930168 
L 178.474262 115.458207 
L 178.617296 115.392202 
L 178.760329 115.062177 
L 178.903363 115.260192 
L 179.046397 115.260192 
L 179.18943 114.952169 
L 179.904598 115.282194 
L 180.047631 114.952169 
L 180.190665 115.084179 
L 180.333698 114.952169 
L 180.476732 115.172186 
L 180.619766 114.754154 
L 180.762799 114.996172 
L 180.905833 114.974171 
L 181.048866 114.666148 
L 181.1919 114.732153 
L 181.334933 109.913795 
L 181.477967 109.275748 
L 181.621 107.317603 
L 181.764034 109.891794 
L 181.907067 109.693779 
L 182.050101 110.485838 
L 182.193135 109.693779 
L 182.336168 109.9798 
L 182.479202 113.632071 
L 182.622235 114.29212 
L 182.765269 114.248117 
L 182.908302 114.798158 
L 183.051336 114.622145 
L 183.194369 115.106181 
L 183.480436 115.260192 
L 183.62347 115.304195 
L 183.766504 115.194187 
L 183.909537 115.392202 
L 184.052571 115.392202 
L 184.338638 115.106181 
L 184.481671 115.524212 
L 184.767738 115.172186 
L 185.053805 115.084179 
L 185.196839 115.194187 
L 185.339873 115.106181 
L 185.482906 115.23819 
L 185.62594 115.084179 
L 185.768973 115.150184 
L 185.912007 114.996172 
L 186.05504 115.150184 
L 186.341107 114.996172 
L 186.627174 115.172186 
L 186.770208 115.084179 
L 186.913242 115.172186 
L 187.056275 114.996172 
L 187.199309 115.040176 
L 187.342342 115.260192 
L 187.485376 115.172186 
L 187.628409 112.686001 
L 187.771443 114.358125 
L 187.914476 113.830086 
L 188.05751 115.326197 
L 188.200543 114.886164 
L 188.343577 110.463836 
L 188.486611 114.578141 
L 188.629644 113.412055 
L 188.772678 114.336123 
L 189.058745 109.583771 
L 189.344812 114.974171 
L 189.487845 114.116107 
L 189.630879 115.50221 
L 189.773912 108.043657 
L 190.203013 114.68815 
L 190.346047 115.282194 
L 190.48908 115.282194 
L 190.775147 114.776156 
L 190.918181 113.522063 
L 191.061214 113.742079 
L 191.347281 105.315454 
L 191.633349 108.109661 
L 191.776382 115.040176 
L 191.919416 114.512137 
L 192.062449 113.104032 
L 192.205483 109.539768 
L 192.348516 114.402128 
L 192.49155 114.622145 
L 192.634583 113.236042 
L 192.777617 115.50221 
L 192.92065 114.952169 
L 193.063684 115.23819 
L 193.206718 113.984097 
L 193.349751 114.908166 
L 193.635818 114.468133 
L 193.921885 115.128182 
L 194.064919 113.720078 
L 194.207952 109.099735 
L 194.350986 114.974171 
L 194.494019 115.150184 
L 194.780087 113.434057 
L 194.92312 115.282194 
L 195.066154 114.16011 
L 195.209187 115.040176 
L 195.352221 114.182112 
L 195.495254 115.216189 
L 195.638288 114.710151 
L 195.781321 115.106181 
L 195.924355 114.974171 
L 196.067388 115.480208 
L 196.210422 115.3702 
L 196.353456 114.710151 
L 196.496489 115.3702 
L 196.782556 115.084179 
L 196.92559 115.172186 
L 197.068623 115.414203 
L 197.211657 114.886164 
L 197.35469 113.764081 
L 197.497724 115.304195 
L 197.783791 115.3702 
L 197.926825 114.930168 
L 198.069858 115.414203 
L 198.212892 115.172186 
L 198.212892 115.172186 
" clip-path="url(#p8ec7b996f5)" style="fill: none; stroke: #014d4e; stroke-width: 1.8; stroke-linecap: square"/>
   </g>
   <g id="patch_3">
    <path d="M 23.855 116.492283 
L 23.855 7.56 
" style="fill: none; stroke: #000000; stroke-width: 0.8; stroke-linejoin: miter; stroke-linecap: square"/>
   </g>
   <g id="patch_4">
    <path d="M 198.355925 116.492283 
L 198.355925 7.56 
" style="fill: none; stroke: #000000; stroke-width: 0.8; stroke-linejoin: miter; stroke-linecap: square"/>
   </g>
   <g id="patch_5">
    <path d="M 23.855 116.492283 
L 198.355925 116.492283 
" style="fill: none; stroke: #000000; stroke-width: 0.8; stroke-linejoin: miter; stroke-linecap: square"/>
   </g>
   <g id="patch_6">
    <path d="M 23.855 7.56 
L 198.355925 7.56 
" style="fill: none; stroke: #000000; stroke-width: 0.8; stroke-linejoin: miter; stroke-linecap: square"/>
   </g>
   <g id="legend_1">
    <g id="patch_7">
     <path d="M 115.268113 33.709375 
L 193.455925 33.709375 
Q 194.855925 33.709375 194.855925 32.309375 
L 194.855925 12.46 
Q 194.855925 11.06 193.455925 11.06 
L 115.268113 11.06 
Q 113.868113 11.06 113.868113 12.46 
L 113.868113 32.309375 
Q 113.868113 33.709375 115.268113 33.709375 
z
" style="fill: #ffffff; opacity: 0.8; stroke: #cccccc; stroke-linejoin: miter"/>
    </g>
    <g id="line2d_15">
     <path d="M 116.668113 16.728906 
L 123.668113 16.728906 
L 130.668113 16.728906 
" style="fill: none; stroke: #c31e23; stroke-width: 2; stroke-linecap: square"/>
    </g>
    <g id="text_9">
     <!-- 0 polarization -->
     <g transform="translate(136.268113 19.178906) scale(0.07 -0.07)">
      <defs>
       <path id="DejaVuSans-b0" d="M 1600 4347 
Q 1350 4347 1178 4173 
Q 1006 4000 1006 3750 
Q 1006 3503 1178 3333 
Q 1350 3163 1600 3163 
Q 1850 3163 2022 3333 
Q 2194 3503 2194 3750 
Q 2194 3997 2020 4172 
Q 1847 4347 1600 4347 
z
M 1600 4750 
Q 1800 4750 1984 4673 
Q 2169 4597 2303 4453 
Q 2447 4313 2519 4134 
Q 2591 3956 2591 3750 
Q 2591 3338 2302 3052 
Q 2013 2766 1594 2766 
Q 1172 2766 890 3047 
Q 609 3328 609 3750 
Q 609 4169 896 4459 
Q 1184 4750 1600 4750 
z
" transform="scale(0.015625)"/>
       <path id="DejaVuSans-70" d="M 1159 525 
L 1159 -1331 
L 581 -1331 
L 581 3500 
L 1159 3500 
L 1159 2969 
Q 1341 3281 1617 3432 
Q 1894 3584 2278 3584 
Q 2916 3584 3314 3078 
Q 3713 2572 3713 1747 
Q 3713 922 3314 415 
Q 2916 -91 2278 -91 
Q 1894 -91 1617 61 
Q 1341 213 1159 525 
z
M 3116 1747 
Q 3116 2381 2855 2742 
Q 2594 3103 2138 3103 
Q 1681 3103 1420 2742 
Q 1159 2381 1159 1747 
Q 1159 1113 1420 752 
Q 1681 391 2138 391 
Q 2594 391 2855 752 
Q 3116 1113 3116 1747 
z
" transform="scale(0.015625)"/>
       <path id="DejaVuSans-6c" d="M 603 4863 
L 1178 4863 
L 1178 0 
L 603 0 
L 603 4863 
z
" transform="scale(0.015625)"/>
       <path id="DejaVuSans-69" d="M 603 3500 
L 1178 3500 
L 1178 0 
L 603 0 
L 603 3500 
z
M 603 4863 
L 1178 4863 
L 1178 4134 
L 603 4134 
L 603 4863 
z
" transform="scale(0.015625)"/>
      </defs>
      <use xlink:href="#DejaVuSans-30"/>
      <use xlink:href="#DejaVuSans-b0" x="63.623047"/>
      <use xlink:href="#DejaVuSans-20" x="113.623047"/>
      <use xlink:href="#DejaVuSans-70" x="145.410156"/>
      <use xlink:href="#DejaVuSans-6f" x="208.886719"/>
      <use xlink:href="#DejaVuSans-6c" x="270.068359"/>
      <use xlink:href="#DejaVuSans-61" x="297.851562"/>
      <use xlink:href="#DejaVuSans-72" x="359.130859"/>
      <use xlink:href="#DejaVuSans-69" x="400.244141"/>
      <use xlink:href="#DejaVuSans-7a" x="428.027344"/>
      <use xlink:href="#DejaVuSans-61" x="480.517578"/>
      <use xlink:href="#DejaVuSans-74" x="541.796875"/>
      <use xlink:href="#DejaVuSans-69" x="581.005859"/>
      <use xlink:href="#DejaVuSans-6f" x="608.789062"/>
      <use xlink:href="#DejaVuSans-6e" x="669.970703"/>
     </g>
    </g>
    <g id="line2d_16">
     <path d="M 116.668113 27.003594 
L 123.668113 27.003594 
L 130.668113 27.003594 
" style="fill: none; stroke: #014d4e; stroke-width: 1.8; stroke-linecap: square"/>
    </g>
    <g id="text_10">
     <!-- 90 polarization -->
     <g transform="translate(136.268113 29.453594) scale(0.07 -0.07)">
      <defs>
       <path id="DejaVuSans-39" d="M 703 97 
L 703 672 
Q 941 559 1184 500 
Q 1428 441 1663 441 
Q 2288 441 2617 861 
Q 2947 1281 2994 2138 
Q 2813 1869 2534 1725 
Q 2256 1581 1919 1581 
Q 1219 1581 811 2004 
Q 403 2428 403 3163 
Q 403 3881 828 4315 
Q 1253 4750 1959 4750 
Q 2769 4750 3195 4129 
Q 3622 3509 3622 2328 
Q 3622 1225 3098 567 
Q 2575 -91 1691 -91 
Q 1453 -91 1209 -44 
Q 966 3 703 97 
z
M 1959 2075 
Q 2384 2075 2632 2365 
Q 2881 2656 2881 3163 
Q 2881 3666 2632 3958 
Q 2384 4250 1959 4250 
Q 1534 4250 1286 3958 
Q 1038 3666 1038 3163 
Q 1038 2656 1286 2365 
Q 1534 2075 1959 2075 
z
" transform="scale(0.015625)"/>
      </defs>
      <use xlink:href="#DejaVuSans-39"/>
      <use xlink:href="#DejaVuSans-30" x="63.623047"/>
      <use xlink:href="#DejaVuSans-b0" x="127.246094"/>
      <use xlink:href="#DejaVuSans-20" x="177.246094"/>
      <use xlink:href="#DejaVuSans-70" x="209.033203"/>
      <use xlink:href="#DejaVuSans-6f" x="272.509766"/>
      <use xlink:href="#DejaVuSans-6c" x="333.691406"/>
      <use xlink:href="#DejaVuSans-61" x="361.474609"/>
      <use xlink:href="#DejaVuSans-72" x="422.753906"/>
      <use xlink:href="#DejaVuSans-69" x="463.867188"/>
      <use xlink:href="#DejaVuSans-7a" x="491.650391"/>
      <use xlink:href="#DejaVuSans-61" x="544.140625"/>
      <use xlink:href="#DejaVuSans-74" x="605.419922"/>
      <use xlink:href="#DejaVuSans-69" x="644.628906"/>
      <use xlink:href="#DejaVuSans-6f" x="672.412109"/>
      <use xlink:href="#DejaVuSans-6e" x="733.59375"/>
     </g>
    </g>
   </g>
  </g>
 </g>
 <defs>
  <clipPath id="p8ec7b996f5">
   <rect x="23.855" y="7.56" width="174.500925" height="108.932283"/>
  </clipPath>
 </defs>
</svg>
