<?xml version="1.0" encoding="utf-8" standalone="no"?>
<!DOCTYPE svg PUBLIC "-//W3C//DTD SVG 1.1//EN"
  "http://www.w3.org/Graphics/SVG/1.1/DTD/svg11.dtd">
<svg xmlns:xlink="http://www.w3.org/1999/xlink" width="212.598425pt" height="141.732283pt" viewBox="0 0 212.598425 141.732283" xmlns="http://www.w3.org/2000/svg" version="1.1">
 <metadata>
  <rdf:RDF xmlns:dc="http://purl.org/dc/elements/1.1/" xmlns:cc="http://creativecommons.org/ns#" xmlns:rdf="http://www.w3.org/1999/02/22-rdf-syntax-ns#">
   <cc:Work>
    <dc:type rdf:resource="http://purl.org/dc/dcmitype/StillImage"/>
    <dc:date>2024-12-20T15:38:47.082098</dc:date>
    <dc:format>image/svg+xml</dc:format>
    <dc:creator>
     <cc:Agent>
      <dc:title>Matplotlib v3.9.2, https://matplotlib.org/</dc:title>
     </cc:Agent>
    </dc:creator>
   </cc:Work>
  </rdf:RDF>
 </metadata>
 <defs>
  <style type="text/css">*{stroke-linejoin: round; stroke-linecap: butt}</style>
 </defs>
 <g id="figure_1">
  <g id="patch_1">
   <path d="M 0 141.732283 
L 212.598425 141.732283 
L 212.598425 0 
L 0 0 
z
" style="fill: #ffffff"/>
  </g>
  <g id="axes_1">
   <g id="patch_2">
    <path d="M 23.855 116.492283 
L 198.355925 116.492283 
L 198.355925 7.56 
L 23.855 7.56 
z
" style="fill: #ffffff"/>
   </g>
   <g id="PolyCollection_1">
    <path d="M 91.86914 -81.566414 
L 91.86914 215.521632 
L 115.914543 215.521632 
L 115.914543 -81.566414 
L 115.914543 -81.566414 
L 91.86914 -81.566414 
z
" clip-path="url(#pf66b35368e)" style="fill: #808080; fill-opacity: 0.8"/>
   </g>
   <g id="PolyCollection_2">
    <path d="M 129.654774 -81.566414 
L 129.654774 215.521632 
L 150.265119 215.521632 
L 150.265119 -81.566414 
L 150.265119 -81.566414 
L 129.654774 -81.566414 
z
" clip-path="url(#pf66b35368e)" style="fill: #808080; fill-opacity: 0.8"/>
   </g>
   <g id="matplotlib.axis_1">
    <g id="xtick_1">
     <g id="line2d_1">
      <defs>
       <path id="m8a83219557" d="M 0 0 
L 0 -3.5 
" style="stroke: #000000; stroke-width: 0.8"/>
      </defs>
      <g>
       <use xlink:href="#m8a83219557" x="26.603046" y="116.492283" style="stroke: #000000; stroke-width: 0.8"/>
      </g>
     </g>
     <g id="line2d_2">
      <defs>
       <path id="mb2e2fe7a80" d="M 0 0 
L 0 3.5 
" style="stroke: #000000; stroke-width: 0.8"/>
      </defs>
      <g>
       <use xlink:href="#mb2e2fe7a80" x="26.603046" y="7.56" style="stroke: #000000; stroke-width: 0.8"/>
      </g>
     </g>
     <g id="text_1">
      <!-- 617 -->
      <g transform="translate(19.922421 124.31119) scale(0.07 -0.07)">
       <defs>
        <path id="DejaVuSans-36" d="M 2113 2584 
Q 1688 2584 1439 2293 
Q 1191 2003 1191 1497 
Q 1191 994 1439 701 
Q 1688 409 2113 409 
Q 2538 409 2786 701 
Q 3034 994 3034 1497 
Q 3034 2003 2786 2293 
Q 2538 2584 2113 2584 
z
M 3366 4563 
L 3366 3988 
Q 3128 4100 2886 4159 
Q 2644 4219 2406 4219 
Q 1781 4219 1451 3797 
Q 1122 3375 1075 2522 
Q 1259 2794 1537 2939 
Q 1816 3084 2150 3084 
Q 2853 3084 3261 2657 
Q 3669 2231 3669 1497 
Q 3669 778 3244 343 
Q 2819 -91 2113 -91 
Q 1303 -91 875 529 
Q 447 1150 447 2328 
Q 447 3434 972 4092 
Q 1497 4750 2381 4750 
Q 2619 4750 2861 4703 
Q 3103 4656 3366 4563 
z
" transform="scale(0.015625)"/>
        <path id="DejaVuSans-31" d="M 794 531 
L 1825 531 
L 1825 4091 
L 703 3866 
L 703 4441 
L 1819 4666 
L 2450 4666 
L 2450 531 
L 3481 531 
L 3481 0 
L 794 0 
L 794 531 
z
" transform="scale(0.015625)"/>
        <path id="DejaVuSans-37" d="M 525 4666 
L 3525 4666 
L 3525 4397 
L 1831 0 
L 1172 0 
L 2766 4134 
L 525 4134 
L 525 4666 
z
" transform="scale(0.015625)"/>
       </defs>
       <use xlink:href="#DejaVuSans-36"/>
       <use xlink:href="#DejaVuSans-31" x="63.623047"/>
       <use xlink:href="#DejaVuSans-37" x="127.246094"/>
      </g>
     </g>
    </g>
    <g id="xtick_2">
     <g id="line2d_3">
      <g>
       <use xlink:href="#m8a83219557" x="60.953622" y="116.492283" style="stroke: #000000; stroke-width: 0.8"/>
      </g>
     </g>
     <g id="line2d_4">
      <g>
       <use xlink:href="#mb2e2fe7a80" x="60.953622" y="7.56" style="stroke: #000000; stroke-width: 0.8"/>
      </g>
     </g>
     <g id="text_2">
      <!-- 618 -->
      <g transform="translate(54.272997 124.31119) scale(0.07 -0.07)">
       <defs>
        <path id="DejaVuSans-38" d="M 2034 2216 
Q 1584 2216 1326 1975 
Q 1069 1734 1069 1313 
Q 1069 891 1326 650 
Q 1584 409 2034 409 
Q 2484 409 2743 651 
Q 3003 894 3003 1313 
Q 3003 1734 2745 1975 
Q 2488 2216 2034 2216 
z
M 1403 2484 
Q 997 2584 770 2862 
Q 544 3141 544 3541 
Q 544 4100 942 4425 
Q 1341 4750 2034 4750 
Q 2731 4750 3128 4425 
Q 3525 4100 3525 3541 
Q 3525 3141 3298 2862 
Q 3072 2584 2669 2484 
Q 3125 2378 3379 2068 
Q 3634 1759 3634 1313 
Q 3634 634 3220 271 
Q 2806 -91 2034 -91 
Q 1263 -91 848 271 
Q 434 634 434 1313 
Q 434 1759 690 2068 
Q 947 2378 1403 2484 
z
M 1172 3481 
Q 1172 3119 1398 2916 
Q 1625 2713 2034 2713 
Q 2441 2713 2670 2916 
Q 2900 3119 2900 3481 
Q 2900 3844 2670 4047 
Q 2441 4250 2034 4250 
Q 1625 4250 1398 4047 
Q 1172 3844 1172 3481 
z
" transform="scale(0.015625)"/>
       </defs>
       <use xlink:href="#DejaVuSans-36"/>
       <use xlink:href="#DejaVuSans-31" x="63.623047"/>
       <use xlink:href="#DejaVuSans-38" x="127.246094"/>
      </g>
     </g>
    </g>
    <g id="xtick_3">
     <g id="line2d_5">
      <g>
       <use xlink:href="#m8a83219557" x="95.304198" y="116.492283" style="stroke: #000000; stroke-width: 0.8"/>
      </g>
     </g>
     <g id="line2d_6">
      <g>
       <use xlink:href="#mb2e2fe7a80" x="95.304198" y="7.56" style="stroke: #000000; stroke-width: 0.8"/>
      </g>
     </g>
     <g id="text_3">
      <!-- 619 -->
      <g transform="translate(88.623573 124.31119) scale(0.07 -0.07)">
       <defs>
        <path id="DejaVuSans-39" d="M 703 97 
L 703 672 
Q 941 559 1184 500 
Q 1428 441 1663 441 
Q 2288 441 2617 861 
Q 2947 1281 2994 2138 
Q 2813 1869 2534 1725 
Q 2256 1581 1919 1581 
Q 1219 1581 811 2004 
Q 403 2428 403 3163 
Q 403 3881 828 4315 
Q 1253 4750 1959 4750 
Q 2769 4750 3195 4129 
Q 3622 3509 3622 2328 
Q 3622 1225 3098 567 
Q 2575 -91 1691 -91 
Q 1453 -91 1209 -44 
Q 966 3 703 97 
z
M 1959 2075 
Q 2384 2075 2632 2365 
Q 2881 2656 2881 3163 
Q 2881 3666 2632 3958 
Q 2384 4250 1959 4250 
Q 1534 4250 1286 3958 
Q 1038 3666 1038 3163 
Q 1038 2656 1286 2365 
Q 1534 2075 1959 2075 
z
" transform="scale(0.015625)"/>
       </defs>
       <use xlink:href="#DejaVuSans-36"/>
       <use xlink:href="#DejaVuSans-31" x="63.623047"/>
       <use xlink:href="#DejaVuSans-39" x="127.246094"/>
      </g>
     </g>
    </g>
    <g id="xtick_4">
     <g id="line2d_7">
      <g>
       <use xlink:href="#m8a83219557" x="129.654774" y="116.492283" style="stroke: #000000; stroke-width: 0.8"/>
      </g>
     </g>
     <g id="line2d_8">
      <g>
       <use xlink:href="#mb2e2fe7a80" x="129.654774" y="7.56" style="stroke: #000000; stroke-width: 0.8"/>
      </g>
     </g>
     <g id="text_4">
      <!-- 620 -->
      <g transform="translate(122.974149 124.31119) scale(0.07 -0.07)">
       <defs>
        <path id="DejaVuSans-32" d="M 1228 531 
L 3431 531 
L 3431 0 
L 469 0 
L 469 531 
Q 828 903 1448 1529 
Q 2069 2156 2228 2338 
Q 2531 2678 2651 2914 
Q 2772 3150 2772 3378 
Q 2772 3750 2511 3984 
Q 2250 4219 1831 4219 
Q 1534 4219 1204 4116 
Q 875 4013 500 3803 
L 500 4441 
Q 881 4594 1212 4672 
Q 1544 4750 1819 4750 
Q 2544 4750 2975 4387 
Q 3406 4025 3406 3419 
Q 3406 3131 3298 2873 
Q 3191 2616 2906 2266 
Q 2828 2175 2409 1742 
Q 1991 1309 1228 531 
z
" transform="scale(0.015625)"/>
        <path id="DejaVuSans-30" d="M 2034 4250 
Q 1547 4250 1301 3770 
Q 1056 3291 1056 2328 
Q 1056 1369 1301 889 
Q 1547 409 2034 409 
Q 2525 409 2770 889 
Q 3016 1369 3016 2328 
Q 3016 3291 2770 3770 
Q 2525 4250 2034 4250 
z
M 2034 4750 
Q 2819 4750 3233 4129 
Q 3647 3509 3647 2328 
Q 3647 1150 3233 529 
Q 2819 -91 2034 -91 
Q 1250 -91 836 529 
Q 422 1150 422 2328 
Q 422 3509 836 4129 
Q 1250 4750 2034 4750 
z
" transform="scale(0.015625)"/>
       </defs>
       <use xlink:href="#DejaVuSans-36"/>
       <use xlink:href="#DejaVuSans-32" x="63.623047"/>
       <use xlink:href="#DejaVuSans-30" x="127.246094"/>
      </g>
     </g>
    </g>
    <g id="xtick_5">
     <g id="line2d_9">
      <g>
       <use xlink:href="#m8a83219557" x="164.005349" y="116.492283" style="stroke: #000000; stroke-width: 0.8"/>
      </g>
     </g>
     <g id="line2d_10">
      <g>
       <use xlink:href="#mb2e2fe7a80" x="164.005349" y="7.56" style="stroke: #000000; stroke-width: 0.8"/>
      </g>
     </g>
     <g id="text_5">
      <!-- 621 -->
      <g transform="translate(157.324724 124.31119) scale(0.07 -0.07)">
       <use xlink:href="#DejaVuSans-36"/>
       <use xlink:href="#DejaVuSans-32" x="63.623047"/>
       <use xlink:href="#DejaVuSans-31" x="127.246094"/>
      </g>
     </g>
    </g>
    <g id="xtick_6">
     <g id="line2d_11">
      <g>
       <use xlink:href="#m8a83219557" x="198.355925" y="116.492283" style="stroke: #000000; stroke-width: 0.8"/>
      </g>
     </g>
     <g id="line2d_12">
      <g>
       <use xlink:href="#mb2e2fe7a80" x="198.355925" y="7.56" style="stroke: #000000; stroke-width: 0.8"/>
      </g>
     </g>
     <g id="text_6">
      <!-- 622 -->
      <g transform="translate(191.6753 124.31119) scale(0.07 -0.07)">
       <use xlink:href="#DejaVuSans-36"/>
       <use xlink:href="#DejaVuSans-32" x="63.623047"/>
       <use xlink:href="#DejaVuSans-32" x="127.246094"/>
      </g>
     </g>
    </g>
    <g id="text_7">
     <!-- Wavelength [nm] -->
     <g transform="translate(80.870931 132.585877) scale(0.07 -0.07)">
      <defs>
       <path id="DejaVuSans-57" d="M 213 4666 
L 850 4666 
L 1831 722 
L 2809 4666 
L 3519 4666 
L 4500 722 
L 5478 4666 
L 6119 4666 
L 4947 0 
L 4153 0 
L 3169 4050 
L 2175 0 
L 1381 0 
L 213 4666 
z
" transform="scale(0.015625)"/>
       <path id="DejaVuSans-61" d="M 2194 1759 
Q 1497 1759 1228 1600 
Q 959 1441 959 1056 
Q 959 750 1161 570 
Q 1363 391 1709 391 
Q 2188 391 2477 730 
Q 2766 1069 2766 1631 
L 2766 1759 
L 2194 1759 
z
M 3341 1997 
L 3341 0 
L 2766 0 
L 2766 531 
Q 2569 213 2275 61 
Q 1981 -91 1556 -91 
Q 1019 -91 701 211 
Q 384 513 384 1019 
Q 384 1609 779 1909 
Q 1175 2209 1959 2209 
L 2766 2209 
L 2766 2266 
Q 2766 2663 2505 2880 
Q 2244 3097 1772 3097 
Q 1472 3097 1187 3025 
Q 903 2953 641 2809 
L 641 3341 
Q 956 3463 1253 3523 
Q 1550 3584 1831 3584 
Q 2591 3584 2966 3190 
Q 3341 2797 3341 1997 
z
" transform="scale(0.015625)"/>
       <path id="DejaVuSans-76" d="M 191 3500 
L 800 3500 
L 1894 563 
L 2988 3500 
L 3597 3500 
L 2284 0 
L 1503 0 
L 191 3500 
z
" transform="scale(0.015625)"/>
       <path id="DejaVuSans-65" d="M 3597 1894 
L 3597 1613 
L 953 1613 
Q 991 1019 1311 708 
Q 1631 397 2203 397 
Q 2534 397 2845 478 
Q 3156 559 3463 722 
L 3463 178 
Q 3153 47 2828 -22 
Q 2503 -91 2169 -91 
Q 1331 -91 842 396 
Q 353 884 353 1716 
Q 353 2575 817 3079 
Q 1281 3584 2069 3584 
Q 2775 3584 3186 3129 
Q 3597 2675 3597 1894 
z
M 3022 2063 
Q 3016 2534 2758 2815 
Q 2500 3097 2075 3097 
Q 1594 3097 1305 2825 
Q 1016 2553 972 2059 
L 3022 2063 
z
" transform="scale(0.015625)"/>
       <path id="DejaVuSans-6c" d="M 603 4863 
L 1178 4863 
L 1178 0 
L 603 0 
L 603 4863 
z
" transform="scale(0.015625)"/>
       <path id="DejaVuSans-6e" d="M 3513 2113 
L 3513 0 
L 2938 0 
L 2938 2094 
Q 2938 2591 2744 2837 
Q 2550 3084 2163 3084 
Q 1697 3084 1428 2787 
Q 1159 2491 1159 1978 
L 1159 0 
L 581 0 
L 581 3500 
L 1159 3500 
L 1159 2956 
Q 1366 3272 1645 3428 
Q 1925 3584 2291 3584 
Q 2894 3584 3203 3211 
Q 3513 2838 3513 2113 
z
" transform="scale(0.015625)"/>
       <path id="DejaVuSans-67" d="M 2906 1791 
Q 2906 2416 2648 2759 
Q 2391 3103 1925 3103 
Q 1463 3103 1205 2759 
Q 947 2416 947 1791 
Q 947 1169 1205 825 
Q 1463 481 1925 481 
Q 2391 481 2648 825 
Q 2906 1169 2906 1791 
z
M 3481 434 
Q 3481 -459 3084 -895 
Q 2688 -1331 1869 -1331 
Q 1566 -1331 1297 -1286 
Q 1028 -1241 775 -1147 
L 775 -588 
Q 1028 -725 1275 -790 
Q 1522 -856 1778 -856 
Q 2344 -856 2625 -561 
Q 2906 -266 2906 331 
L 2906 616 
Q 2728 306 2450 153 
Q 2172 0 1784 0 
Q 1141 0 747 490 
Q 353 981 353 1791 
Q 353 2603 747 3093 
Q 1141 3584 1784 3584 
Q 2172 3584 2450 3431 
Q 2728 3278 2906 2969 
L 2906 3500 
L 3481 3500 
L 3481 434 
z
" transform="scale(0.015625)"/>
       <path id="DejaVuSans-74" d="M 1172 4494 
L 1172 3500 
L 2356 3500 
L 2356 3053 
L 1172 3053 
L 1172 1153 
Q 1172 725 1289 603 
Q 1406 481 1766 481 
L 2356 481 
L 2356 0 
L 1766 0 
Q 1100 0 847 248 
Q 594 497 594 1153 
L 594 3053 
L 172 3053 
L 172 3500 
L 594 3500 
L 594 4494 
L 1172 4494 
z
" transform="scale(0.015625)"/>
       <path id="DejaVuSans-68" d="M 3513 2113 
L 3513 0 
L 2938 0 
L 2938 2094 
Q 2938 2591 2744 2837 
Q 2550 3084 2163 3084 
Q 1697 3084 1428 2787 
Q 1159 2491 1159 1978 
L 1159 0 
L 581 0 
L 581 4863 
L 1159 4863 
L 1159 2956 
Q 1366 3272 1645 3428 
Q 1925 3584 2291 3584 
Q 2894 3584 3203 3211 
Q 3513 2838 3513 2113 
z
" transform="scale(0.015625)"/>
       <path id="DejaVuSans-20" transform="scale(0.015625)"/>
       <path id="DejaVuSans-5b" d="M 550 4863 
L 1875 4863 
L 1875 4416 
L 1125 4416 
L 1125 -397 
L 1875 -397 
L 1875 -844 
L 550 -844 
L 550 4863 
z
" transform="scale(0.015625)"/>
       <path id="DejaVuSans-6d" d="M 3328 2828 
Q 3544 3216 3844 3400 
Q 4144 3584 4550 3584 
Q 5097 3584 5394 3201 
Q 5691 2819 5691 2113 
L 5691 0 
L 5113 0 
L 5113 2094 
Q 5113 2597 4934 2840 
Q 4756 3084 4391 3084 
Q 3944 3084 3684 2787 
Q 3425 2491 3425 1978 
L 3425 0 
L 2847 0 
L 2847 2094 
Q 2847 2600 2669 2842 
Q 2491 3084 2119 3084 
Q 1678 3084 1418 2786 
Q 1159 2488 1159 1978 
L 1159 0 
L 581 0 
L 581 3500 
L 1159 3500 
L 1159 2956 
Q 1356 3278 1631 3431 
Q 1906 3584 2284 3584 
Q 2666 3584 2933 3390 
Q 3200 3197 3328 2828 
z
" transform="scale(0.015625)"/>
       <path id="DejaVuSans-5d" d="M 1947 4863 
L 1947 -844 
L 622 -844 
L 622 -397 
L 1369 -397 
L 1369 4416 
L 622 4416 
L 622 4863 
L 1947 4863 
z
" transform="scale(0.015625)"/>
      </defs>
      <use xlink:href="#DejaVuSans-57"/>
      <use xlink:href="#DejaVuSans-61" x="92.501953"/>
      <use xlink:href="#DejaVuSans-76" x="153.78125"/>
      <use xlink:href="#DejaVuSans-65" x="212.960938"/>
      <use xlink:href="#DejaVuSans-6c" x="274.484375"/>
      <use xlink:href="#DejaVuSans-65" x="302.267578"/>
      <use xlink:href="#DejaVuSans-6e" x="363.791016"/>
      <use xlink:href="#DejaVuSans-67" x="427.169922"/>
      <use xlink:href="#DejaVuSans-74" x="490.646484"/>
      <use xlink:href="#DejaVuSans-68" x="529.855469"/>
      <use xlink:href="#DejaVuSans-20" x="593.234375"/>
      <use xlink:href="#DejaVuSans-5b" x="625.021484"/>
      <use xlink:href="#DejaVuSans-6e" x="664.035156"/>
      <use xlink:href="#DejaVuSans-6d" x="727.414062"/>
      <use xlink:href="#DejaVuSans-5d" x="824.826172"/>
     </g>
    </g>
   </g>
   <g id="matplotlib.axis_2">
    <g id="ytick_1">
     <g id="line2d_13">
      <defs>
       <path id="m37fdb0b9c2" d="M 0 0 
L 2.5 0 
" style="stroke: #000000; stroke-width: 0.8"/>
      </defs>
      <g>
       <use xlink:href="#m37fdb0b9c2" x="23.855" y="116.492283" style="stroke: #000000; stroke-width: 0.8"/>
      </g>
     </g>
     <g id="line2d_14">
      <defs>
       <path id="mb2ad72bbec" d="M 0 0 
L -2.5 0 
" style="stroke: #000000; stroke-width: 0.8"/>
      </defs>
      <g>
       <use xlink:href="#mb2ad72bbec" x="198.355925" y="116.492283" style="stroke: #000000; stroke-width: 0.8"/>
      </g>
     </g>
     <g id="text_8">
      <!-- 0 -->
      <g transform="translate(15.90125 119.151737) scale(0.07 -0.07)">
       <use xlink:href="#DejaVuSans-30"/>
      </g>
     </g>
    </g>
    <g id="ytick_2">
     <g id="line2d_15">
      <g>
       <use xlink:href="#m37fdb0b9c2" x="23.855" y="17.462935" style="stroke: #000000; stroke-width: 0.8"/>
      </g>
     </g>
     <g id="line2d_16">
      <g>
       <use xlink:href="#mb2ad72bbec" x="198.355925" y="17.462935" style="stroke: #000000; stroke-width: 0.8"/>
      </g>
     </g>
     <g id="text_9">
      <!-- 1 -->
      <g transform="translate(15.90125 20.122388) scale(0.07 -0.07)">
       <use xlink:href="#DejaVuSans-31"/>
      </g>
     </g>
    </g>
    <g id="text_10">
     <!-- Intensity [a.u.] -->
     <g transform="translate(12.945469 87.690985) rotate(-90) scale(0.07 -0.07)">
      <defs>
       <path id="DejaVuSans-49" d="M 628 4666 
L 1259 4666 
L 1259 0 
L 628 0 
L 628 4666 
z
" transform="scale(0.015625)"/>
       <path id="DejaVuSans-73" d="M 2834 3397 
L 2834 2853 
Q 2591 2978 2328 3040 
Q 2066 3103 1784 3103 
Q 1356 3103 1142 2972 
Q 928 2841 928 2578 
Q 928 2378 1081 2264 
Q 1234 2150 1697 2047 
L 1894 2003 
Q 2506 1872 2764 1633 
Q 3022 1394 3022 966 
Q 3022 478 2636 193 
Q 2250 -91 1575 -91 
Q 1294 -91 989 -36 
Q 684 19 347 128 
L 347 722 
Q 666 556 975 473 
Q 1284 391 1588 391 
Q 1994 391 2212 530 
Q 2431 669 2431 922 
Q 2431 1156 2273 1281 
Q 2116 1406 1581 1522 
L 1381 1569 
Q 847 1681 609 1914 
Q 372 2147 372 2553 
Q 372 3047 722 3315 
Q 1072 3584 1716 3584 
Q 2034 3584 2315 3537 
Q 2597 3491 2834 3397 
z
" transform="scale(0.015625)"/>
       <path id="DejaVuSans-69" d="M 603 3500 
L 1178 3500 
L 1178 0 
L 603 0 
L 603 3500 
z
M 603 4863 
L 1178 4863 
L 1178 4134 
L 603 4134 
L 603 4863 
z
" transform="scale(0.015625)"/>
       <path id="DejaVuSans-79" d="M 2059 -325 
Q 1816 -950 1584 -1140 
Q 1353 -1331 966 -1331 
L 506 -1331 
L 506 -850 
L 844 -850 
Q 1081 -850 1212 -737 
Q 1344 -625 1503 -206 
L 1606 56 
L 191 3500 
L 800 3500 
L 1894 763 
L 2988 3500 
L 3597 3500 
L 2059 -325 
z
" transform="scale(0.015625)"/>
       <path id="DejaVuSans-2e" d="M 684 794 
L 1344 794 
L 1344 0 
L 684 0 
L 684 794 
z
" transform="scale(0.015625)"/>
       <path id="DejaVuSans-75" d="M 544 1381 
L 544 3500 
L 1119 3500 
L 1119 1403 
Q 1119 906 1312 657 
Q 1506 409 1894 409 
Q 2359 409 2629 706 
Q 2900 1003 2900 1516 
L 2900 3500 
L 3475 3500 
L 3475 0 
L 2900 0 
L 2900 538 
Q 2691 219 2414 64 
Q 2138 -91 1772 -91 
Q 1169 -91 856 284 
Q 544 659 544 1381 
z
M 1991 3584 
L 1991 3584 
z
" transform="scale(0.015625)"/>
      </defs>
      <use xlink:href="#DejaVuSans-49"/>
      <use xlink:href="#DejaVuSans-6e" x="29.492188"/>
      <use xlink:href="#DejaVuSans-74" x="92.871094"/>
      <use xlink:href="#DejaVuSans-65" x="132.080078"/>
      <use xlink:href="#DejaVuSans-6e" x="193.603516"/>
      <use xlink:href="#DejaVuSans-73" x="256.982422"/>
      <use xlink:href="#DejaVuSans-69" x="309.082031"/>
      <use xlink:href="#DejaVuSans-74" x="336.865234"/>
      <use xlink:href="#DejaVuSans-79" x="376.074219"/>
      <use xlink:href="#DejaVuSans-20" x="435.253906"/>
      <use xlink:href="#DejaVuSans-5b" x="467.041016"/>
      <use xlink:href="#DejaVuSans-61" x="506.054688"/>
      <use xlink:href="#DejaVuSans-2e" x="567.333984"/>
      <use xlink:href="#DejaVuSans-75" x="599.121094"/>
      <use xlink:href="#DejaVuSans-2e" x="662.5"/>
      <use xlink:href="#DejaVuSans-5d" x="694.287109"/>
     </g>
    </g>
   </g>
   <g id="line2d_17">
    <path d="M 23.68561 105.089211 
L 24.001635 113.248743 
L 24.317641 115.123915 
L 24.949598 114.31303 
L 25.265549 114.31303 
L 25.581481 114.617112 
L 25.897394 115.174595 
L 26.213289 114.870513 
L 26.529165 115.427997 
L 26.845023 114.515751 
L 27.160861 114.769153 
L 27.476682 114.41439 
L 27.792483 114.465071 
L 28.108266 115.073234 
L 28.424031 114.870513 
L 28.739777 114.819833 
L 29.055504 114.515751 
L 29.371212 115.225275 
L 29.686902 114.160989 
L 30.318226 114.008948 
L 30.63386 115.275956 
L 31.265072 113.552825 
L 31.58065 114.465071 
L 32.21175 114.36371 
L 32.527272 114.465071 
L 32.842775 114.059628 
L 33.15826 114.262349 
L 33.473726 114.059628 
L 33.789174 113.654185 
L 34.420013 114.110308 
L 34.735404 112.944661 
L 35.050777 113.248743 
L 35.366131 112.640579 
L 35.681467 113.400784 
L 35.996784 113.502144 
L 36.312082 113.046022 
L 36.627362 114.718472 
L 36.942622 113.603505 
L 37.257865 114.667792 
L 38.203479 113.400784 
L 38.518647 113.451464 
L 38.833795 111.424251 
L 39.148925 103.3154 
L 39.464037 75.289182 
L 39.77913 81.26946 
L 40.094204 110.917448 
L 40.409259 114.059628 
L 40.724296 112.488538 
L 41.039314 113.046022 
L 41.354313 112.589899 
L 41.669294 112.74194 
L 41.984256 112.488538 
L 42.614123 114.211669 
L 42.929029 114.059628 
L 43.243916 113.350104 
L 43.558785 114.31303 
L 43.873634 114.059628 
L 44.188465 113.958267 
L 44.503277 112.893981 
L 44.818071 112.8433 
L 45.447602 114.465071 
L 45.762339 114.667792 
L 46.077058 114.059628 
L 46.391758 114.41439 
L 46.706439 115.529357 
L 47.335746 113.856907 
L 47.650371 114.110308 
L 47.964977 112.944661 
L 48.279565 113.958267 
L 48.594134 114.008948 
L 48.908684 114.31303 
L 49.223215 114.059628 
L 49.537728 113.603505 
L 49.852222 113.502144 
L 50.166697 113.958267 
L 50.481154 113.248743 
L 50.795592 113.248743 
L 51.110011 112.8433 
L 51.424411 111.373571 
L 51.738792 113.299423 
L 52.053155 109.346358 
L 52.367499 98.65281 
L 52.681824 97.08172 
L 52.996131 110.410645 
L 53.310419 111.880374 
L 53.624688 106.001457 
L 53.938938 107.420506 
L 54.253169 110.258604 
L 54.567382 109.194317 
L 54.881576 109.903842 
L 55.509908 114.211669 
L 55.824046 113.907587 
L 56.138164 114.465071 
L 56.452265 114.31303 
L 56.766346 114.971874 
L 57.080408 114.617112 
L 57.394452 113.958267 
L 57.708477 113.755546 
L 58.022484 114.31303 
L 58.336471 114.465071 
L 58.65044 115.123915 
L 59.278321 115.174595 
L 59.592233 114.566431 
L 59.906127 114.718472 
L 60.220002 114.617112 
L 60.533857 114.870513 
L 61.161513 114.667792 
L 61.475313 114.718472 
L 61.789093 114.921193 
L 62.416599 114.31303 
L 62.730323 115.275956 
L 63.985033 113.350104 
L 64.298663 114.008948 
L 64.612274 113.907587 
L 64.925867 114.566431 
L 65.239441 114.566431 
L 65.552996 115.022554 
L 65.866533 114.566431 
L 66.493549 114.465071 
L 66.807028 114.819833 
L 67.120489 114.41439 
L 67.433932 113.603505 
L 67.747355 114.211669 
L 68.06076 113.400784 
L 68.374145 111.931055 
L 68.687512 107.876629 
L 69.314189 90.493278 
L 69.940791 110.664046 
L 70.567318 111.728333 
L 70.880553 112.437858 
L 71.193769 114.31303 
L 71.506966 113.046022 
L 71.820144 113.299423 
L 72.133304 114.31303 
L 72.446445 114.819833 
L 72.759567 113.755546 
L 73.07267 113.603505 
L 73.385754 114.262349 
L 73.698819 114.41439 
L 74.011866 115.225275 
L 74.324893 113.958267 
L 74.637902 114.515751 
L 74.950892 113.806226 
L 75.263863 114.36371 
L 75.889748 114.211669 
L 76.515558 114.262349 
L 76.828435 113.958267 
L 77.141293 111.779014 
L 77.454132 112.032415 
L 78.079753 107.927309 
L 78.392535 110.309284 
L 79.330769 106.356219 
L 79.643475 107.420506 
L 79.956163 108.07935 
L 80.268832 111.880374 
L 80.581482 112.184456 
L 80.894113 112.691259 
L 81.206726 112.488538 
L 81.519319 113.198063 
L 82.144449 113.400784 
L 82.456986 113.502144 
L 82.769503 112.74194 
L 83.082002 113.350104 
L 83.394482 113.451464 
L 83.706943 112.893981 
L 84.019385 113.046022 
L 84.331809 113.502144 
L 84.644213 114.211669 
L 85.268965 114.211669 
L 85.581312 114.211669 
L 85.893641 115.225275 
L 86.205951 114.41439 
L 86.518241 113.958267 
L 86.830513 114.921193 
L 87.767215 112.893981 
L 88.079412 113.958267 
L 88.703747 113.198063 
L 89.015886 113.299423 
L 89.328007 110.968128 
L 89.640108 109.954522 
L 90.264255 101.642949 
L 90.576299 105.596014 
L 90.888325 111.525612 
L 91.200332 113.299423 
L 91.512319 113.603505 
L 91.824288 113.451464 
L 92.136238 112.589899 
L 92.760081 114.160989 
L 93.071974 113.806226 
L 93.383848 113.907587 
L 93.695704 113.704866 
L 94.00754 114.211669 
L 94.319357 113.654185 
L 94.631155 113.856907 
L 94.942935 113.451464 
L 95.254695 113.552825 
L 95.566436 113.502144 
L 95.878159 113.198063 
L 96.189862 113.400784 
L 96.501547 113.856907 
L 96.813212 113.299423 
L 97.436486 114.110308 
L 97.748095 113.147382 
L 98.059684 113.350104 
L 98.371255 112.944661 
L 98.682806 111.626973 
L 98.994339 109.092956 
L 99.305853 110.106563 
L 99.617347 110.258604 
L 99.928823 109.244997 
L 100.240279 104.379687 
L 100.551717 102.301793 
L 101.174535 74.883739 
L 101.485916 71.944281 
L 101.797278 89.834434 
L 102.108621 96.777638 
L 103.042535 88.364705 
L 103.353801 90.543959 
L 103.665049 79.64769 
L 104.287487 35.049006 
L 104.598678 22.125524 
L 104.909849 20.301033 
L 105.532135 63.835429 
L 105.84325 69.866387 
L 106.154346 63.98747 
L 106.465422 42.144252 
L 106.77648 42.701735 
L 107.087518 66.420126 
L 107.398537 79.191567 
L 107.709538 84.918443 
L 108.020519 81.32014 
L 108.331481 79.242247 
L 108.642425 80.762657 
L 108.953349 88.314025 
L 109.264254 99.413015 
L 109.57514 105.798736 
L 109.886008 104.98785 
L 110.196856 103.011318 
L 110.507685 104.430367 
L 110.818495 98.60213 
L 111.129286 98.298048 
L 111.440058 96.676278 
L 111.750811 98.450089 
L 112.061544 105.900096 
L 112.372259 110.157243 
L 112.993632 112.032415 
L 113.304289 112.539218 
L 113.925547 112.79262 
L 114.236148 112.184456 
L 114.546729 113.147382 
L 114.857291 111.728333 
L 115.167835 111.880374 
L 115.478359 112.539218 
L 115.788864 111.728333 
L 116.09935 111.626973 
L 116.409817 110.664046 
L 116.720265 110.461325 
L 117.341103 102.352474 
L 117.651494 102.757916 
L 117.961866 99.869138 
L 118.272218 95.51063 
L 118.582552 98.247368 
L 118.892866 104.93717 
L 119.203161 108.890235 
L 119.513437 107.471186 
L 119.823694 106.710981 
L 120.133932 104.024924 
L 120.754351 110.968128 
L 121.064532 113.603505 
L 121.684836 110.258604 
L 121.994959 107.015063 
L 122.305063 102.099072 
L 122.925215 111.069489 
L 123.235262 111.373571 
L 124.78521 114.31303 
L 125.405055 112.79262 
L 125.71495 113.755546 
L 126.024825 114.008948 
L 126.33468 110.917448 
L 126.644517 109.346358 
L 126.954335 112.387177 
L 127.264133 113.704866 
L 127.883673 112.691259 
L 128.193414 113.400784 
L 128.503136 113.096702 
L 129.122522 114.465071 
L 129.741832 112.336497 
L 130.051458 113.299423 
L 130.361065 113.147382 
L 130.670653 113.856907 
L 130.980222 113.046022 
L 131.289772 114.059628 
L 131.599303 114.31303 
L 131.908814 113.806226 
L 132.218306 114.617112 
L 132.527779 112.032415 
L 132.837233 111.576292 
L 133.146668 110.765407 
L 133.456084 111.677653 
L 133.76548 111.069489 
L 134.074857 111.829694 
L 134.384215 113.502144 
L 134.693554 113.046022 
L 135.002874 112.235136 
L 135.312175 111.931055 
L 135.930719 112.437858 
L 136.239962 110.512006 
L 136.549186 110.359965 
L 136.858391 108.991596 
L 137.167576 105.291932 
L 137.476743 105.697375 
L 137.78589 104.227646 
L 138.095018 106.761662 
L 138.404127 107.977989 
L 139.331338 101.74431 
L 139.640371 101.237507 
L 139.949384 98.450089 
L 140.258377 88.364705 
L 140.876307 39.610235 
L 142.111937 80.914698 
L 143.347259 99.767777 
L 143.656042 100.17322 
L 144.273549 104.785129 
L 144.582274 102.656556 
L 144.89098 97.841925 
L 145.199667 101.186826 
L 145.508334 102.149752 
L 146.125611 106.406899 
L 146.434221 105.190572 
L 147.051382 96.98036 
L 147.359934 97.132401 
L 147.97698 102.960638 
L 148.285475 100.730703 
L 148.59395 84.36096 
L 148.902406 88.922188 
L 149.210842 95.611991 
L 149.51926 98.804851 
L 149.827658 107.167104 
L 150.136037 112.235136 
L 150.444396 113.502144 
L 150.752737 112.995341 
L 151.061058 113.400784 
L 151.36936 112.336497 
L 151.677642 113.451464 
L 151.985906 113.248743 
L 152.29415 112.184456 
L 152.602375 112.285817 
L 152.91058 111.22153 
L 153.218767 112.387177 
L 153.526934 111.018809 
L 153.835082 110.461325 
L 154.143211 111.069489 
L 154.45132 111.322891 
L 154.75941 109.397038 
L 155.067481 102.200433 
L 155.375532 69.562306 
L 155.683565 17.462935 
L 155.991578 87.401779 
L 156.299572 107.825948 
L 156.607546 108.383432 
L 156.915501 107.825948 
L 157.223437 106.356219 
L 157.531354 109.092956 
L 157.839251 110.055883 
L 158.14713 112.387177 
L 158.454988 112.944661 
L 158.762828 114.059628 
L 159.070648 113.502144 
L 159.378449 113.755546 
L 159.686231 113.755546 
L 159.993993 112.893981 
L 160.60946 112.589899 
L 160.917165 113.552825 
L 161.22485 113.806226 
L 161.532516 113.400784 
L 161.840163 114.211669 
L 162.14779 113.958267 
L 162.455398 113.907587 
L 162.762987 113.502144 
L 163.070556 113.704866 
L 163.378107 113.704866 
L 163.685638 114.160989 
L 164.300641 112.995341 
L 164.608114 113.856907 
L 164.915568 113.856907 
L 165.223002 113.654185 
L 165.530417 113.958267 
L 165.837813 113.755546 
L 166.452546 112.387177 
L 166.759884 113.198063 
L 167.067202 112.589899 
L 167.374501 113.856907 
L 167.989042 112.691259 
L 168.296283 114.211669 
L 168.603504 112.893981 
L 168.910707 114.921193 
L 169.21789 114.262349 
L 169.525054 113.958267 
L 169.832198 113.907587 
L 170.139323 114.008948 
L 171.981668 110.005202 
L 172.288657 109.346358 
L 172.595628 98.348728 
L 172.902579 67.737814 
L 173.20951 66.420126 
L 173.516423 100.882744 
L 173.823315 70.423871 
L 174.130189 89.986475 
L 174.437043 96.270835 
L 175.35749 107.876629 
L 175.664266 107.724588 
L 175.971024 107.217785 
L 176.277762 109.65044 
L 176.584481 109.59976 
L 176.89118 110.005202 
L 177.19786 108.484793 
L 177.50452 109.802481 
L 177.811162 110.309284 
L 178.117783 110.258604 
L 178.424386 110.005202 
L 178.730969 110.917448 
L 179.037532 110.410645 
L 179.344077 108.231391 
L 179.957107 113.451464 
L 180.263593 113.046022 
L 180.57006 113.248743 
L 180.876507 111.525612 
L 181.489344 103.011318 
L 182.102103 82.536468 
L 182.408453 84.41164 
L 182.714784 81.168099 
L 183.021096 67.737814 
L 183.327388 66.318765 
L 183.939914 107.876629 
L 184.246148 113.096702 
L 184.552363 114.31303 
L 184.858558 114.008948 
L 185.164733 114.465071 
L 185.47089 114.566431 
L 186.083144 114.110308 
L 186.389242 114.667792 
L 186.695321 114.31303 
L 187.00138 114.262349 
L 187.30742 113.806226 
L 187.919441 113.603505 
L 188.225423 115.580038 
L 188.531385 113.400784 
L 188.837328 113.856907 
L 189.143251 113.603505 
L 189.449155 114.059628 
L 189.755039 112.944661 
L 190.060904 112.893981 
L 190.36675 112.336497 
L 190.672576 113.248743 
L 190.978382 113.654185 
L 191.28417 113.856907 
L 191.589937 113.603505 
L 191.895686 112.995341 
L 192.201415 113.958267 
L 192.507124 113.046022 
L 192.812814 113.907587 
L 193.118485 113.198063 
L 193.424136 113.654185 
L 194.03538 113.806226 
L 194.340972 113.147382 
L 194.646546 113.198063 
L 194.952099 114.059628 
L 195.257634 114.008948 
L 195.563149 114.36371 
L 196.17412 114.31303 
L 196.479577 113.502144 
L 196.785014 111.779014 
L 197.395829 113.755546 
L 198.311907 115.174595 
L 198.617227 114.008948 
L 198.617227 114.008948 
" clip-path="url(#pf66b35368e)" style="fill: none; stroke: #c31e23; stroke-width: 3; stroke-linecap: square"/>
   </g>
   <g id="patch_3">
    <path d="M 23.855 116.492283 
L 23.855 7.56 
" style="fill: none; stroke: #000000; stroke-width: 0.8; stroke-linejoin: miter; stroke-linecap: square"/>
   </g>
   <g id="patch_4">
    <path d="M 198.355925 116.492283 
L 198.355925 7.56 
" style="fill: none; stroke: #000000; stroke-width: 0.8; stroke-linejoin: miter; stroke-linecap: square"/>
   </g>
   <g id="patch_5">
    <path d="M 23.855 116.492283 
L 198.355925 116.492283 
" style="fill: none; stroke: #000000; stroke-width: 0.8; stroke-linejoin: miter; stroke-linecap: square"/>
   </g>
   <g id="patch_6">
    <path d="M 23.855 7.56 
L 198.355925 7.56 
" style="fill: none; stroke: #000000; stroke-width: 0.8; stroke-linejoin: miter; stroke-linecap: square"/>
   </g>
   <g id="text_11">
    <!-- C -->
    <g style="fill: #ffffff" transform="translate(90.165352 22.225625) scale(0.15 -0.15)">
     <defs>
      <path id="DejaVuSans-Bold-43" d="M 4288 256 
Q 3956 84 3597 -3 
Q 3238 -91 2847 -91 
Q 1681 -91 1000 561 
Q 319 1213 319 2328 
Q 319 3447 1000 4098 
Q 1681 4750 2847 4750 
Q 3238 4750 3597 4662 
Q 3956 4575 4288 4403 
L 4288 3438 
Q 3953 3666 3628 3772 
Q 3303 3878 2944 3878 
Q 2300 3878 1931 3465 
Q 1563 3053 1563 2328 
Q 1563 1606 1931 1193 
Q 2300 781 2944 781 
Q 3303 781 3628 887 
Q 3953 994 4288 1222 
L 4288 256 
z
" transform="scale(0.015625)"/>
     </defs>
     <use xlink:href="#DejaVuSans-Bold-43"/>
    </g>
   </g>
   <g id="text_12">
    <!-- D -->
    <g style="fill: #ffffff" transform="translate(132.045574 22.225625) scale(0.15 -0.15)">
     <defs>
      <path id="DejaVuSans-Bold-44" d="M 1791 3756 
L 1791 909 
L 2222 909 
Q 2959 909 3348 1275 
Q 3738 1641 3738 2338 
Q 3738 3031 3350 3393 
Q 2963 3756 2222 3756 
L 1791 3756 
z
M 588 4666 
L 1856 4666 
Q 2919 4666 3439 4514 
Q 3959 4363 4331 4000 
Q 4659 3684 4818 3271 
Q 4978 2859 4978 2338 
Q 4978 1809 4818 1395 
Q 4659 981 4331 666 
Q 3956 303 3431 151 
Q 2906 0 1856 0 
L 588 0 
L 588 4666 
z
" transform="scale(0.015625)"/>
     </defs>
     <use xlink:href="#DejaVuSans-Bold-44"/>
    </g>
   </g>
   <g id="legend_1">
    <g id="patch_7">
     <path d="M 28.755 33.709375 
L 67.868594 33.709375 
Q 69.268594 33.709375 69.268594 32.309375 
L 69.268594 12.46 
Q 69.268594 11.06 67.868594 11.06 
L 28.755 11.06 
Q 27.355 11.06 27.355 12.46 
L 27.355 32.309375 
Q 27.355 33.709375 28.755 33.709375 
z
" style="fill: #ffffff; opacity: 0.8; stroke: #cccccc; stroke-linejoin: miter"/>
    </g>
    <g id="line2d_18">
     <path d="M 30.155 16.728906 
L 37.155 16.728906 
L 44.155 16.728906 
" style="fill: none; stroke: #c31e23; stroke-width: 3; stroke-linecap: square"/>
    </g>
    <g id="text_13">
     <!-- Data -->
     <g transform="translate(49.755 19.178906) scale(0.07 -0.07)">
      <defs>
       <path id="DejaVuSans-44" d="M 1259 4147 
L 1259 519 
L 2022 519 
Q 2988 519 3436 956 
Q 3884 1394 3884 2338 
Q 3884 3275 3436 3711 
Q 2988 4147 2022 4147 
L 1259 4147 
z
M 628 4666 
L 1925 4666 
Q 3281 4666 3915 4102 
Q 4550 3538 4550 2338 
Q 4550 1131 3912 565 
Q 3275 0 1925 0 
L 628 0 
L 628 4666 
z
" transform="scale(0.015625)"/>
      </defs>
      <use xlink:href="#DejaVuSans-44"/>
      <use xlink:href="#DejaVuSans-61" x="77.001953"/>
      <use xlink:href="#DejaVuSans-74" x="138.28125"/>
      <use xlink:href="#DejaVuSans-61" x="177.490234"/>
     </g>
    </g>
    <g id="line2d_19">
     <path d="M 30.155 27.003594 
L 37.155 27.003594 
L 44.155 27.003594 
" style="fill: none; stroke: #000000; stroke-opacity: 0.75; stroke-width: 2; stroke-linecap: square"/>
    </g>
    <g id="text_14">
     <!-- Fit -->
     <g transform="translate(49.755 29.453594) scale(0.07 -0.07)">
      <defs>
       <path id="DejaVuSans-46" d="M 628 4666 
L 3309 4666 
L 3309 4134 
L 1259 4134 
L 1259 2759 
L 3109 2759 
L 3109 2228 
L 1259 2228 
L 1259 0 
L 628 0 
L 628 4666 
z
" transform="scale(0.015625)"/>
      </defs>
      <use xlink:href="#DejaVuSans-46"/>
      <use xlink:href="#DejaVuSans-69" x="50.269531"/>
      <use xlink:href="#DejaVuSans-74" x="78.052734"/>
     </g>
    </g>
   </g>
   <g id="line2d_20">
    <path d="M 23.68561 116.448505 
L 67.747355 116.293063 
L 79.956163 116.060715 
L 86.205951 115.735576 
L 89.640108 115.36703 
L 92.136238 114.894159 
L 94.00754 114.306156 
L 95.254695 113.707476 
L 96.189862 113.075274 
L 97.124858 112.191628 
L 98.059684 110.898966 
L 98.682806 109.672629 
L 99.305853 107.991216 
L 99.928823 105.633259 
L 100.551717 102.285858 
L 101.174535 97.560859 
L 101.797278 91.086564 
L 102.731249 77.88816 
L 104.287487 53.223126 
L 104.909849 47.343679 
L 105.221002 46.124278 
L 105.532135 46.187543 
L 105.84325 47.528858 
L 106.154346 50.057011 
L 106.77648 57.952245 
L 108.953349 91.405446 
L 109.57514 97.78332 
L 110.196856 102.429715 
L 110.818495 105.719546 
L 111.440058 108.037564 
L 112.061544 109.691595 
L 112.993632 111.381889 
L 113.925547 112.49675 
L 114.857291 113.270678 
L 116.09935 113.982735 
L 117.651494 114.567778 
L 119.513437 115.014895 
L 121.994959 115.372057 
L 125.405055 115.61896 
L 129.122522 115.674564 
L 131.908814 115.535364 
L 133.76548 115.257843 
L 135.002874 114.882327 
L 135.930719 114.386762 
L 136.549186 113.86184 
L 137.167576 113.050656 
L 137.78589 111.699365 
L 138.095018 110.657875 
L 138.404127 109.204492 
L 138.713217 107.122555 
L 139.022287 104.096093 
L 139.331338 99.725308 
L 139.949384 85.712223 
L 140.876307 59.776154 
L 141.185244 56.254771 
L 141.494161 57.614741 
L 141.803058 63.452123 
L 143.038458 97.221117 
L 143.656042 105.934851 
L 144.273549 110.123568 
L 144.89098 112.226767 
L 145.508334 113.40838 
L 146.125611 114.140797 
L 147.051382 114.813805 
L 148.285475 115.321846 
L 149.827658 115.672408 
L 152.29415 115.960323 
L 156.299572 116.168967 
L 164.300641 116.321607 
L 184.246148 116.422382 
L 198.617227 116.446401 
L 198.617227 116.446401 
" clip-path="url(#pf66b35368e)" style="fill: none; stroke: #000000; stroke-opacity: 0.75; stroke-width: 2; stroke-linecap: square"/>
   </g>
  </g>
 </g>
 <defs>
  <clipPath id="pf66b35368e">
   <rect x="23.855" y="7.56" width="174.500925" height="108.932283"/>
  </clipPath>
 </defs>
</svg>
